<?xml version="1.0" encoding="UTF-8" standalone="no"?>

<svg width="100px" height="100px" viewBox="0 0 100 100" version="1.1" id="blue-www" xml:space="preserve"
  xmlns="http://www.w3.org/2000/svg"
  xmlns:svg="http://www.w3.org/2000/svg"
  xmlns:rdf="http://www.w3.org/1999/02/22-rdf-syntax-ns#"
  xmlns:cc="http://creativecommons.org/ns#"
  xmlns:dc="http://purl.org/dc/elements/1.1/">
  <title id="title10">World Wide Web Globe- Blue/Transparent</title>
  <g id="layer1" transform="translate(-50.694089,-88.771351)">
    <g id="g5" transform="matrix(0.8201604,0,0,0.8201604,9.1167961,15.964624)">
      <path d="M 111.65781,90.171327 A 59.563683,59.740131 0 0 0 52.0941,149.91146 59.563683,59.740131 0 0 0 111.65781,209.6516 59.563683,59.740131 0 0 0 171.22153,149.91146 59.563683,59.740131 0 0 0 111.65781,90.171327 Z" style="display:inline;opacity:0.401659;fill:#4db4e6;stroke:#09054d;stroke-width:2.8;stroke-miterlimit:3.8;stroke-opacity:0.993846" id="path9" />
      <g id="globe-spin">
        <path id="path5" style="display:inline;opacity:1;fill:#86878a;fill-opacity:0;stroke:#09054d;stroke-width:2.3;stroke-miterlimit:3.8;stroke-dasharray:none;stroke-opacity:0.993846" d="m 65.96947,187.76532 c 0,0 49.27621,-28.92997 92.12662,-0.33901 M 65.39567,113.21807 c 0,0 50.40087,26.92286 92.06558,-3.36991 M 51.75987,149.91159 h 119.79571 m -31.51819,0 a 28.379663,59.662479 0 0 1 -28.37967,59.66248 28.379663,59.662479 0 0 1 -28.379661,-59.66248 28.379663,59.662479 0 0 1 28.379661,-59.662479 28.379663,59.662479 0 0 1 28.37967,59.662479 z" />
        <path d="M 111.65781,90.171327 A 59.563683,59.740131 0 0 0 52.0941,149.91146 59.563683,59.740131 0 0 0 111.65781,209.6516 59.563683,59.740131 0 0 0 171.22153,149.91146 59.563683,59.740131 0 0 0 111.65781,90.171327 Z" style="display:inline;opacity:1;fill:#86878a;fill-opacity:0;stroke:#09054d;stroke-width:2.8;stroke-miterlimit:3.8;stroke-opacity:0.993846" id="path8" />
      </g>
      <path d="m 69.841482,138.79438 c -0.369301,0 -0.933187,0.0259 -1.691757,0.0769 -0.748587,0.0407 -1.312472,0.0611 -1.691757,0.0611 -0.419209,0 -1.053173,-0.0204 -1.901573,-0.0611 -0.838418,-0.0407 -1.467242,-0.0611 -1.886451,-0.0611 -0.229566,0 -0.344022,0.18865 -0.344022,0.56581 0,0.80527 -0.03021,2.01797 -0.0901,3.6387 -0.04991,1.61054 -0.07435,2.8183 -0.07435,3.62357 0,0.58101 1.901263,4.97437 5.704089,13.17995 0.139736,0.29561 0.304338,0.44358 0.49398,0.44358 0.319398,0 0.793271,-0.0105 1.422084,-0.0309 0.638796,-0.0204 1.117808,-0.0303 1.437206,-0.0303 0.309416,0 0.778779,0.0154 1.407592,0.046 0.628815,0.0204 1.098176,0.0302 1.407593,0.0302 0.179661,0 0.333981,-0.15289 0.463737,-0.4587 l 1.812101,-4.43385 c 0.808476,1.96731 1.407086,3.44512 1.79635,4.43385 0.129756,0.30581 0.284707,0.4587 0.464367,0.4587 0.309417,0 0.778148,-0.01 1.406963,-0.0302 0.628813,-0.0306 1.098175,-0.046 1.407592,-0.046 0.209604,0 0.688618,0.0154 1.437206,0.046 0.59887,0.0306 1.072743,0.0355 1.422084,0.0151 0.17966,-0.0103 0.289604,-0.0411 0.32953,-0.092 l 0.16445,-0.35159 c 1.097929,-2.37502 2.121526,-4.63766 3.069736,-6.78845 0.03992,-0.10193 0.553664,-1.22339 1.541799,-3.36398 0.928249,-1.98766 1.392471,-2.99692 1.392471,-3.02752 0,-0.80527 -0.02507,-2.01303 -0.07498,-3.62357 -0.04991,-1.62073 -0.07498,-2.83343 -0.07498,-3.6387 0,-0.37716 -0.114455,-0.56581 -0.344022,-0.56581 -0.419209,0 -1.053173,0.0204 -1.901573,0.0611 -0.838417,0.0407 -1.472382,0.0611 -1.901573,0.0611 -0.399246,0 -0.997855,-0.0204 -1.79635,-0.0611 -0.798492,-0.0509 -1.397732,-0.0769 -1.79698,-0.0769 -0.159697,0 -0.239429,0.10728 -0.239429,0.32134 0,0.84605 0.03021,2.1204 0.0901,3.82268 0.06987,1.70228 0.104593,2.976 0.104593,3.82205 0,0.3058 -0.174884,0.95315 -0.524224,1.94189 -0.369304,1.04992 -0.64322,1.5752 -0.822881,1.5752 -0.05989,0 -0.135108,-0.10728 -0.224937,-0.32134 -0.179661,-0.36697 -0.39892,-1.00383 -0.658431,-1.91103 -0.269492,-0.96836 -0.40451,-1.61571 -0.40451,-1.94189 0,-0.7645 0.02507,-1.91616 0.07498,-3.45535 0.04991,-1.54938 0.07498,-2.70659 0.07498,-3.47109 0,-0.24464 -0.124738,-0.36671 -0.374266,-0.36671 -0.379285,0 -0.953451,0.0204 -1.722001,0.0611 -0.758568,0.0407 -1.327595,0.0611 -1.706879,0.0611 -0.41921,0 -1.048033,-0.0204 -1.886451,-0.0611 -0.828436,-0.0509 -1.452119,-0.0769 -1.871329,-0.0769 -0.149718,0 -0.224307,0.16338 -0.224307,0.48957 v 7.04867 c 0,0.28542 -0.115086,0.88653 -0.344653,1.80391 -0.209603,0.87662 -0.379347,1.47342 -0.509102,1.78942 -0.08983,0.23445 -0.164422,0.35159 -0.224307,0.35159 -0.189643,0 -0.504054,-0.52528 -0.943226,-1.5752 -0.419209,-0.99894 -0.628817,-1.64629 -0.628817,-1.94189 0,-0.84605 0.02958,-2.11977 0.08947,-3.82205 0.06987,-1.70228 0.105223,-2.97663 0.105223,-3.82268 0,-0.21406 -0.08036,-0.32134 -0.24006,-0.32134 z m 35.519968,0 c -0.3693,0 -0.93319,0.0259 -1.69176,0.0769 -0.74858,0.0407 -1.31247,0.0611 -1.69175,0.0611 -0.41922,0 -1.05318,-0.0204 -1.90158,-0.0611 -0.838408,-0.0407 -1.467237,-0.0611 -1.886447,-0.0611 -0.229565,0 -0.344022,0.18865 -0.344022,0.56581 0,0.80527 -0.03021,2.01797 -0.0901,3.6387 -0.04991,1.61054 -0.07498,2.8183 -0.07498,3.62357 0,0.58101 1.901261,4.97437 5.704089,13.17995 0.13973,0.29561 0.30497,0.44358 0.49461,0.44358 0.3194,0 0.79327,-0.0105 1.42208,-0.0309 0.6388,-0.0204 1.11782,-0.0303 1.43721,-0.0303 0.30942,0 0.77878,0.0154 1.40759,0.046 0.62882,0.0204 1.09755,0.0302 1.40696,0.0302 0.17968,0 0.33462,-0.15289 0.46437,-0.4587 l 1.81147,-4.43385 c 0.80848,1.96731 1.40709,3.44512 1.79635,4.43385 0.12976,0.30581 0.28471,0.4587 0.46437,0.4587 0.30942,0 0.77877,-0.01 1.40759,-0.0302 0.62882,-0.0306 1.09756,-0.046 1.40696,-0.046 0.20961,0 0.68862,0.0154 1.43721,0.046 0.59887,0.0306 1.07339,0.0355 1.42271,0.0151 0.17966,-0.0103 0.2896,-0.0411 0.32954,-0.092 l 0.16445,-0.35159 c 1.09791,-2.37502 2.12089,-4.63766 3.0691,-6.78845 0.0399,-0.10193 0.55429,-1.22339 1.54243,-3.36398 0.92825,-1.98766 1.39184,-2.99692 1.39184,-3.02752 h 6.3e-4 c 0,-0.80527 -0.0251,-2.01303 -0.075,-3.62357 -0.0499,-1.62073 -0.075,-2.83343 -0.075,-3.6387 0,-0.37716 -0.11508,-0.56581 -0.34465,-0.56581 -0.41921,0 -1.05254,0.0204 -1.90094,0.0611 -0.83842,0.0407 -1.47239,0.0611 -1.90158,0.0611 -0.39924,0 -0.99785,-0.0204 -1.79635,-0.0611 -0.79848,-0.0509 -1.39773,-0.0769 -1.79698,-0.0769 -0.1597,0 -0.23942,0.10728 -0.23942,0.32134 0,0.84605 0.0296,2.1204 0.0895,3.82268 0.0699,1.70228 0.10522,2.976 0.10522,3.82205 0,0.3058 -0.17489,0.95315 -0.52423,1.94189 -0.36929,1.04992 -0.64385,1.5752 -0.82351,1.5752 -0.0599,0 -0.13448,-0.10728 -0.2243,-0.32134 -0.17967,-0.36697 -0.39956,-1.00383 -0.65906,-1.91103 -0.2695,-0.96836 -0.40388,-1.61571 -0.40388,-1.94189 0,-0.7645 0.025,-1.91616 0.075,-3.45535 0.0499,-1.54938 0.0743,-2.70659 0.0743,-3.47109 0,-0.24464 -0.12473,-0.36671 -0.37426,-0.36671 -0.37929,0 -0.95282,0.0204 -1.72137,0.0611 -0.75857,0.0407 -1.32759,0.0611 -1.70688,0.0611 -0.41921,0 -1.04803,-0.0204 -1.88645,-0.0611 -0.82844,-0.0509 -1.45212,-0.0769 -1.87133,-0.0769 -0.14972,0 -0.22494,0.16338 -0.22494,0.48957 v 7.04867 c 0,0.28542 -0.11445,0.88653 -0.34402,1.80391 -0.20961,0.87662 -0.37935,1.47342 -0.5091,1.78942 -0.0899,0.23445 -0.16507,0.35159 -0.22494,0.35159 -0.18964,0 -0.50405,-0.52528 -0.94323,-1.5752 -0.41921,-0.99894 -0.62881,-1.64629 -0.62881,-1.94189 0,-0.84605 0.0302,-2.11977 0.0901,-3.82205 0.0699,-1.70228 0.10459,-2.97663 0.10459,-3.82268 0,-0.21406 -0.0797,-0.32134 -0.23943,-0.32134 z m 35.51997,0 c -0.36931,0 -0.93319,0.0259 -1.69176,0.0769 -0.74858,0.0407 -1.3131,0.0611 -1.69238,0.0611 -0.41922,0 -1.05255,-0.0204 -1.90095,-0.0611 -0.83842,-0.0407 -1.46724,-0.0611 -1.88645,-0.0611 -0.22956,0 -0.34465,0.18865 -0.34465,0.56581 0,0.80527 -0.0295,2.01797 -0.0895,3.6387 -0.0499,1.61054 -0.075,2.8183 -0.075,3.62357 0,0.58101 1.90127,4.97437 5.70409,13.17995 0.13974,0.29561 0.30434,0.44358 0.49398,0.44358 0.3194,0 0.79389,-0.0105 1.42271,-0.0309 0.6388,-0.0204 1.11781,-0.0303 1.43721,-0.0303 0.30941,0 0.77815,0.0154 1.40696,0.046 0.62881,0.0204 1.09818,0.0302 1.40759,0.0302 0.17967,0 0.33462,-0.15289 0.46437,-0.4587 l 1.81147,-4.43385 c 0.80847,1.96731 1.40709,3.44512 1.79635,4.43385 0.12976,0.30581 0.28471,0.4587 0.46437,0.4587 0.30942,0 0.77814,-0.01 1.40696,-0.0302 0.62881,-0.0306 1.09818,-0.046 1.40759,-0.046 0.20961,0 0.68862,0.0154 1.43721,0.046 0.59887,0.0306 1.07337,0.0355 1.42271,0.0151 0.17966,-0.0103 0.28897,-0.0411 0.3289,-0.092 l 0.16508,-0.35159 c 1.09794,-2.37502 2.1209,-4.63766 3.06911,-6.78845 0.0399,-0.10193 0.55366,-1.22339 1.5418,-3.36398 0.92825,-1.98766 1.39247,-2.99692 1.39247,-3.02752 0,-0.80527 -0.0243,-2.01303 -0.0744,-3.62357 -0.0499,-1.62073 -0.075,-2.83343 -0.075,-3.6387 0,-0.37716 -0.11508,-0.56581 -0.34465,-0.56581 -0.41921,0 -1.05254,0.0204 -1.90094,0.0611 -0.83842,0.0407 -1.47239,0.0611 -1.90158,0.0611 -0.39924,0 -0.99848,-0.0204 -1.79698,-0.0611 -0.79849,-0.0509 -1.3971,-0.0769 -1.79635,-0.0769 -0.1597,0 -0.23943,0.10728 -0.23943,0.32134 0,0.84605 0.0296,2.1204 0.0895,3.82268 0.0699,1.70228 0.10523,2.976 0.10523,3.82205 0,0.3058 -0.17489,0.95315 -0.52423,1.94189 -0.3693,1.04992 -0.64385,1.5752 -0.82351,1.5752 -0.0599,0 -0.13448,-0.10728 -0.2243,-0.32134 -0.17967,-0.36697 -0.39956,-1.00383 -0.65907,-1.91103 -0.26949,-0.96836 -0.40387,-1.61571 -0.40387,-1.94189 0,-0.7645 0.0245,-1.91616 0.0743,-3.45535 0.0499,-1.54938 0.075,-2.70659 0.075,-3.47109 0,-0.24464 -0.12474,-0.36671 -0.37426,-0.36671 -0.3793,0 -0.95346,0.0204 -1.722,0.0611 -0.75858,0.0407 -1.3276,0.0611 -1.70688,0.0611 -0.41922,0 -1.04803,-0.0204 -1.88645,-0.0611 -0.82844,-0.0509 -1.45213,-0.0769 -1.87133,-0.0769 -0.14972,0 -0.22431,0.16338 -0.22431,0.48957 v 7.04867 c 0,0.28542 -0.11509,0.88653 -0.34465,1.80391 -0.20961,0.87662 -0.37935,1.47342 -0.5091,1.78942 -0.0898,0.23445 -0.16438,0.35159 -0.22431,0.35159 -0.18964,0 -0.50405,-0.52528 -0.94323,-1.5752 -0.4192,-0.99894 -0.62881,-1.64629 -0.62881,-1.94189 0,-0.84605 0.0302,-2.11977 0.0901,-3.82205 0.0699,-1.70228 0.10459,-2.97663 0.10459,-3.82268 0,-0.21406 -0.0797,-0.32134 -0.23943,-0.32134 z" style="font-weight:bold;font-size:30.9863px;font-family:'Berlin Sans FB';-inkscape-font-specification:'Berlin Sans FB, Bold';display:inline;fill:white;stroke:#09054d;stroke-width:1.69687;stroke-miterlimit:3.8;stroke-opacity:0.993846" id="path10" />
    </g>
  </g>
  <metadata id="metadata10">
    <rdf:RDF>
      <cc:Work rdf:about="">
        <dc:title>World Wide Web Globe- Blue/Transparent</dc:title>
        <dc:date>1/26/2024</dc:date>
        <dc:creator>
          <cc:Agent>
            <dc:title>Code-Nit-Whit (C. Whitaker)</dc:title>
          </cc:Agent>
        </dc:creator>
        <dc:rights>
          <cc:Agent>
            <dc:title>C. Whitaker</dc:title>
          </cc:Agent>
        </dc:rights>
        <dc:identifier>https://github.com/Code-Nit-Whit/Animated-SVG/Assets/blue-www.svg</dc:identifier>
        <dc:source>https://github.com/Code-Nit-Whit</dc:source>
        <dc:subject>
          <rdf:Bag>
            <rdf:li>world wide web</rdf:li>
          </rdf:Bag>
        </dc:subject>
        <dc:description>A blue wireframe globe with a transparent lighter blue background and &quot;W W W&quot; across the front outlined in blue with a white background.</dc:description>
        <cc:license rdf:resource="http://creativecommons.org/licenses/by/4.0/" />
      </cc:Work>
      <cc:License rdf:about="http://creativecommons.org/licenses/by/4.0/">
        <cc:permits rdf:resource="http://creativecommons.org/ns#Reproduction" />
        <cc:permits rdf:resource="http://creativecommons.org/ns#Distribution" />
        <cc:requires rdf:resource="http://creativecommons.org/ns#Notice" />
        <cc:requires rdf:resource="http://creativecommons.org/ns#Attribution" />
        <cc:permits rdf:resource="http://creativecommons.org/ns#DerivativeWorks" />
      </cc:License>
    </rdf:RDF>
  </metadata>
</svg>   
