<?xml version="1.0" encoding="UTF-8" standalone="no"?>
<!-- Created with Inkscape (http://www.inkscape.org/) -->

<svg
   width="71.670815mm"
   height="61.954617mm"
   viewBox="0 0 71.670815 61.954617"
   version="1.1"
   id="drop-button"
   xmlns:xlink="http://www.w3.org/1999/xlink"
   xmlns="http://www.w3.org/2000/svg"
   xmlns:svg="http://www.w3.org/2000/svg">
  <defs
     id="defs1">
    <linearGradient
      class="ar-btn-grad"
       id="linearGradient107">
      <stop
         style="stop-color:#030502;stop-opacity:1;"
         offset="0"
         id="stopColor1" />
      <stop
         style="stop-color:#090504;stop-opacity:0;"
         offset="0.93716812"
         id="stopColor2" />
    </linearGradient>
    <pattern
       xlink:href="#pattern25-8"
       preserveAspectRatio="xMidYMid"
       id="pattern97"
       patternTransform="matrix(0.5996345,0.0209397,-0.0209397,0.5996345,946.66407,457.29883)"
       x="0"
       y="0" />
    <clipPath
       clipPathUnits="userSpaceOnUse"
       id="clipPath25">
      <rect
         style="fill:red;stroke:none;stroke-width:3;stroke-linecap:square;stroke-linejoin:miter;paint-order:stroke markers fill;stop-color:black"
         id="rect25-8"
         width="78"
         height="45.033199"
         x="763.61322"
         y="452.82422" />
    </clipPath>
    <pattern
       patternUnits="userSpaceOnUse"
       width="78"
       height="45.033199"
       patternTransform="translate(946.66407,457.29883) scale(0.6)"
       preserveAspectRatio="xMidYMid"
       id="pattern25-8"
       style="fill:#1ad2e7">
      <g
         id="g13"
         transform="translate(-763.61322,-452.82422)"
         clip-path="url(#clipPath25)">
        <path
           id="path11-0"
           style="color:#000000;stroke-width:3;stroke-linecap:square;paint-order:stroke markers fill"
           d="m 805.62688,448.21094 -12.5,7.21679 v 14.43555 l -12.5,7.2168 v 14.43359 l 12.5,7.2168 12.5,-7.2168 12.5,7.2168 12.5,-7.2168 v -14.43359 l -12.5,-7.2168 v -14.43555 z m 0,9.22265 4.51368,2.60547 v 14.4336 l 12.5,7.21679 v 5.21289 l -4.51368,2.60547 -12.5,-7.21679 -12.5,7.21679 -4.51367,-2.60547 v -5.21289 l 12.5,-7.21679 v -14.4336 z m 0,1.73243 -3.01367,1.73828 v 14.43359 l -12.5,7.21875 v 3.47852 l 3.01367,1.74023 12.5,-7.2168 12.5,7.2168 3.01563,-1.74023 v -3.47852 l -12.50195,-7.21875 V 460.9043 Z" />
        <path
           id="path20-8"
           style="color:#000000;stroke-width:3;stroke-linecap:square;paint-order:stroke markers fill"
           d="m 805.62688,403.17774 -12.5,7.2168 v 14.43554 l -12.5,7.2168 v 14.43359 l 12.5,7.2168 12.5,-7.2168 12.5,7.2168 12.5,-7.2168 v -14.43359 l -12.5,-7.2168 v -14.43554 z m 0,9.22265 4.51368,2.60547 v 14.4336 l 12.5,7.21679 v 5.21289 l -4.51368,2.60547 -12.5,-7.21679 -12.5,7.21679 -4.51367,-2.60547 v -5.21289 l 12.5,-7.21679 v -14.4336 z m 0,1.73243 -3.01367,1.73828 v 14.43359 l -12.5,7.21875 v 3.47852 l 3.01367,1.74023 12.5,-7.2168 12.5,7.2168 3.01563,-1.74023 v -3.47852 l -12.50195,-7.21875 V 415.8711 Z m -39,56.59765 -12.5,7.2168 v 14.43554 l -12.5,7.2168 v 14.43359 l 12.5,7.2168 12.5,-7.2168 12.5,7.2168 12.5,-7.2168 v -14.43359 l -12.5,-7.2168 v -14.43554 z m 0,9.22265 4.51368,2.60547 v 14.4336 l 12.5,7.21679 v 5.21289 l -4.51368,2.60547 -12.5,-7.21679 -12.5,7.21679 -4.51367,-2.60547 v -5.21289 l 12.5,-7.21679 v -14.4336 z m 0,1.73243 -3.01367,1.73828 v 14.43359 l -12.5,7.21875 v 3.47852 l 3.01367,1.74023 12.5,-7.2168 12.5,7.2168 3.01563,-1.74023 v -3.47852 l -12.50195,-7.21875 v -14.43359 z m 78,-10.95508 -12.5,7.2168 v 14.43554 l -12.5,7.2168 v 14.43359 l 12.5,7.2168 12.5,-7.2168 12.5,7.2168 12.5,-7.2168 v -14.43359 l -12.5,-7.2168 v -14.43554 z m 0,9.22265 4.51368,2.60547 v 14.4336 l 12.5,7.21679 v 5.21289 l -4.51368,2.60547 -12.5,-7.21679 -12.5,7.21679 -4.51367,-2.60547 v -5.21289 l 12.5,-7.21679 v -14.4336 z m 0,1.73243 -3.01367,1.73828 v 14.43359 l -12.5,7.21875 v 3.47852 l 3.01367,1.74023 12.5,-7.2168 12.5,7.2168 3.01563,-1.74023 v -3.47852 l -12.50195,-7.21875 v -14.43359 z" />
        <path
           id="path92"
           style="color:#000000;stroke-width:3;stroke-linecap:square;paint-order:stroke markers fill"
           d="m 766.62688,425.69727 -12.5,7.21679 v 14.43555 l -12.5,7.2168 V 469 l 12.5,7.2168 12.5,-7.2168 12.5,7.2168 12.5,-7.2168 v -14.43359 l -12.5,-7.2168 v -14.43555 z m 0,9.22265 4.51368,2.60547 v 14.4336 l 12.5,7.21679 v 5.21289 l -4.51368,2.60547 -12.5,-7.21679 -12.5,7.21679 -4.51367,-2.60547 v -5.21289 l 12.5,-7.21679 v -14.4336 z m 0,1.73243 -3.01367,1.73828 v 14.43359 l -12.5,7.21875 v 3.47852 l 3.01367,1.74023 12.5,-7.2168 12.5,7.2168 3.01563,-1.74023 v -3.47852 l -12.50195,-7.21875 v -14.43359 z m 78,-10.95508 -12.5,7.21679 v 14.43555 l -12.5,7.2168 V 469 l 12.5,7.2168 12.5,-7.2168 12.5,7.2168 12.5,-7.2168 v -14.43359 l -12.5,-7.2168 v -14.43555 z m 0,9.22265 4.51368,2.60547 v 14.4336 l 12.5,7.21679 v 5.21289 l -4.51368,2.60547 -12.5,-7.21679 -12.5,7.21679 -4.51367,-2.60547 v -5.21289 l 12.5,-7.21679 v -14.4336 z m 0,1.73243 -3.01367,1.73828 v 14.43359 l -12.5,7.21875 v 3.47852 l 3.01367,1.74023 12.5,-7.2168 12.5,7.2168 3.01563,-1.74023 v -3.47852 l -12.50195,-7.21875 v -14.43359 z m -39,56.59765 -12.5,7.21679 v 14.43555 l -12.5,7.2168 v 14.43359 l 12.5,7.2168 12.5,-7.2168 12.5,7.2168 12.5,-7.2168 v -14.43359 l -12.5,-7.2168 v -14.43555 z m 0,9.22265 4.51368,2.60547 v 14.4336 l 12.5,7.21679 v 5.21289 l -4.51368,2.60547 -12.5,-7.21679 -12.5,7.21679 -4.51367,-2.60547 v -5.21289 l 12.5,-7.21679 v -14.4336 z m 0,1.73243 -3.01367,1.73828 v 14.43359 l -12.5,7.21875 v 3.47852 l 3.01367,1.74023 12.5,-7.2168 12.5,7.2168 3.01563,-1.74023 v -3.47852 l -12.50195,-7.21875 v -14.43359 z" />
      </g>
    </pattern>
    <filter
       style="color-interpolation-filters:sRGB"
       id="filter93"
       x="-0.7411382"
       y="-0.62242008"
       width="2.4819917"
       height="2.5598208">
      <feGaussianBlur
         stdDeviation="0.33412037"
         id="feGaussianBlur93" />
    </filter>
    <filter
       style="color-interpolation-filters:sRGB"
       id="filter97"
       x="-0.69521673"
       y="-0.60888498"
       width="2.4165456"
       height="2.5040992">
      <feGaussianBlur
         stdDeviation="0.00019385052"
         id="feGaussianBlur97" />
    </filter>
    <linearGradient
       xlink:href="#linearGradient107"
       id="linearGradient108"
       x1="2560.2358"
       y1="3393.2214"
       x2="2587.3203"
       y2="3393.2214"
       gradientUnits="userSpaceOnUse" />
    <linearGradient
       xlink:href="#linearGradient107"
       id="linearGradient109"
       gradientUnits="userSpaceOnUse"
       x1="2560.2358"
       y1="3393.2214"
       x2="2587.3203"
       y2="3393.2214" />
    <linearGradient
       xlink:href="#linearGradient107"
       id="linearGradient110"
       gradientUnits="userSpaceOnUse"
       x1="2560.2358"
       y1="3393.2214"
       x2="2587.3203"
       y2="3393.2214" />
    <linearGradient
       xlink:href="#linearGradient107"
       id="linearGradient111"
       gradientUnits="userSpaceOnUse"
       x1="2560.2358"
       y1="3393.2214"
       x2="2587.3203"
       y2="3393.2214" />
    <linearGradient
       xlink:href="#linearGradient107"
       id="linearGradient112"
       gradientUnits="userSpaceOnUse"
       x1="2560.2358"
       y1="3393.2214"
       x2="2587.3203"
       y2="3393.2214" />
    <linearGradient
       xlink:href="#linearGradient107"
       id="linearGradient113"
       gradientUnits="userSpaceOnUse"
       x1="2560.2358"
       y1="3393.2214"
       x2="2587.3203"
       y2="3393.2214" />
    <linearGradient
       xlink:href="#linearGradient107"
       id="linearGradient114"
       gradientUnits="userSpaceOnUse"
       x1="2560.2358"
       y1="3393.2214"
       x2="2587.3203"
       y2="3393.2214" />
    <linearGradient
       xlink:href="#linearGradient107"
       id="linearGradient115"
       gradientUnits="userSpaceOnUse"
       x1="2560.2358"
       y1="3393.2214"
       x2="2587.3203"
       y2="3393.2214" />
    <linearGradient
       xlink:href="#linearGradient107"
       id="linearGradient116"
       gradientUnits="userSpaceOnUse"
       x1="2560.2358"
       y1="3393.2214"
       x2="2587.3203"
       y2="3393.2214" />
    <linearGradient
       xlink:href="#linearGradient107"
       id="linearGradient117"
       gradientUnits="userSpaceOnUse"
       x1="2560.2358"
       y1="3393.2214"
       x2="2587.3203"
       y2="3393.2214" />
    <linearGradient
       xlink:href="#linearGradient107"
       id="linearGradient118"
       gradientUnits="userSpaceOnUse"
       x1="2560.2358"
       y1="3393.2214"
       x2="2587.3203"
       y2="3393.2214" />
    <linearGradient
       xlink:href="#linearGradient107"
       id="linearGradient119"
       gradientUnits="userSpaceOnUse"
       x1="2560.2358"
       y1="3393.2214"
       x2="2587.3203"
       y2="3393.2214" />
  </defs>
  <g
     id="layer1"
     transform="translate(-2542.1314,-3359.6222)">
    <g
       id="g93"
       transform="matrix(1.6494465,0,0,1.4114042,-1667.3383,-1402.4189)"
       style="mix-blend-mode:multiply;fill:url(#pattern97);fill-opacity:1;stroke:url(#linearGradient108);stroke-width:0.9;stroke-dasharray:none;filter:url(#filter97)">
      <path
         id="path38"
         style="opacity:0.515888;fill:url(#pattern97);fill-opacity:1;stroke:url(#linearGradient109);stroke-width:0.9;stroke-dasharray:none"
         d="m 2573.492,3385.675 c -2.0379,0 -4.0759,0.014 -6.1128,0.012 -0.1029,0.01 -0.2057,0.016 -0.3085,0.024 -1.8965,0.2043 -3.1573,2.4507 -2.3265,4.1708 2.0049,3.6077 4.0703,7.1878 6.1381,10.7601 0.087,0.1412 0.189,0.2674 0.2977,0.386 1.0622,1.3934 3.4098,1.4675 4.5186,0.073 1.1563,-1.7326 2.0876,-3.6186 3.1595,-5.4085 1.0626,-1.9125 2.2184,-3.7784 3.2251,-5.719 0.2934,-0.6998 0.2504,-1.4666 -0.023,-2.1435 -0.3477,-1.0828 -1.2814,-1.9863 -2.4561,-2.1188 -2.0362,-0.035 -4.0739,-0.039 -6.1118,-0.036 z"
         transform="translate(0.06652887,0.06652886)" />
      <path
         id="path80"
         style="opacity:0.090909;mix-blend-mode:color-burn;fill:url(#pattern97);fill-opacity:1;stroke:url(#linearGradient110);stroke-width:1.59098;stroke-dasharray:none;filter:url(#filter93)"
         d="m 2573.4203,3393.8677 c 0.4882,-0.8554 0.9765,-1.7109 1.4648,-2.5664 -0.9772,0 -1.9544,0 -2.9316,0 0.4889,0.8555 0.9778,1.711 1.4668,2.5664 z"
         transform="matrix(0.55588448,0,0,0.57566619,1142.7925,1439.8416)" />
      <path
         id="path81"
         style="opacity:0.090909;mix-blend-mode:color-burn;fill:url(#pattern97);fill-opacity:1;stroke:url(#linearGradient111);stroke-width:1.59098;stroke-dasharray:none;filter:url(#filter93)"
         d="m 2573.4203,3396.5337 c 1.248,-2.1849 2.4961,-4.3698 3.7441,-6.5547 -2.4967,1e-4 -4.9935,0 -7.4902,0 1.2487,2.1849 2.4974,4.3698 3.7461,6.5547 z"
         transform="matrix(0.55588448,0,0,0.57566619,1142.7925,1439.8416)" />
      <path
         id="path82"
         style="opacity:0.090909;mix-blend-mode:color-burn;fill:url(#pattern97);fill-opacity:1;stroke:url(#linearGradient112);stroke-width:1.59098;stroke-dasharray:none;filter:url(#filter93)"
         d="m 2567.5492,3388.6646 c -0.2481,0.183 0.261,0.5329 0.2781,0.7475 1.8652,3.226 3.6722,6.5041 5.5734,9.6978 0.3463,-0.2359 0.4577,-0.8224 0.732,-1.1591 1.7271,-3.0699 3.5441,-6.1097 5.2153,-9.1983 -0.2415,-0.2645 -0.779,0 -1.1051,-0.096 -3.5645,0.01 -7.1297,-0.01 -10.6937,0.01 z"
         transform="matrix(0.55588448,0,0,0.57566619,1142.7925,1439.8416)" />
      <path
         id="path83"
         style="opacity:0.090909;mix-blend-mode:color-burn;fill:url(#pattern97);fill-opacity:1;stroke:url(#linearGradient113);stroke-width:1.59098;stroke-dasharray:none;filter:url(#filter93)"
         d="m 2567.3578,3387.3521 c -1.1227,0.1266 -1.5716,1.5924 -0.8532,2.4128 1.9485,3.3792 3.8452,6.7907 5.8258,10.1497 0.6638,0.8957 2.141,0.5484 2.475,-0.4753 1.9187,-3.3829 3.8823,-6.7424 5.7731,-10.1399 0.4527,-1.051 -0.6053,-2.1844 -1.6887,-1.9668 -3.8437,0.013 -7.6896,-0.026 -11.532,0.019 z"
         transform="matrix(0.55588448,0,0,0.57566619,1142.7925,1439.8416)" />
      <path
         d="m 2590.5166,3394.6965 -5.8739,-10.2793 -0.176,-0.3694 -0.119,-0.3915 -0.059,-0.4049 v -0.4091 l 0.062,-0.4045 0.1217,-0.3907 0.1784,-0.3682 0.2312,-0.3376 0.2789,-0.2995 0.3203,-0.2546 0.3546,-0.2042 0.381,-0.1492 0.3989,-0.091 0.4081,-0.031 h 11.6745 l 0.4112,0.031 0.4021,0.091 0.384,0.1504 0.3574,0.2058 0.3227,0.2566 0.281,0.3018 0.233,0.3402 0.1798,0.3711 0.1227,0.3938 0.063,0.4075 v 0.4124 l -0.06,0.408 -0.12,0.3945 -0.1774,0.3723 -5.8556,10.2474 -0.2288,0.3386 -0.2769,0.3005 -0.3188,0.2557 -0.3534,0.2051 -0.3802,0.1499 -0.3983,0.091 -0.4075,0.031 -0.4075,-0.031 -0.3983,-0.091 -0.3801,-0.1499 -0.3535,-0.2051 -0.3187,-0.2557 -0.2769,-0.3005 z"
         style="opacity:0.090909;mix-blend-mode:color-burn;fill:url(#pattern97);fill-opacity:1;stroke:url(#linearGradient114);stroke-width:1.59098;stroke-dasharray:none;filter:url(#filter93)"
         id="path84"
         transform="matrix(0.55588448,0,0,0.57566619,1131.9747,1443.1217)" />
      <path
         id="path85"
         style="opacity:0.090909;mix-blend-mode:color-burn;fill:url(#pattern97);fill-opacity:1;stroke:url(#linearGradient115);stroke-width:1.59098;stroke-dasharray:none;filter:url(#filter93)"
         d="m 2567.4632,3384.6919 c -2.3498,-0.015 -4.3353,2.3314 -3.9146,4.6452 0.2581,1.5367 1.3535,2.7551 2.0228,4.1266 1.5709,2.6899 3.0417,5.4426 4.675,8.0935 1.3547,1.7903 4.22,2.0488 5.8594,0.5078 1.1019,-1.083 1.6309,-2.5975 2.4633,-3.879 1.4831,-2.6509 3.0635,-5.251 4.4859,-7.9335 0.8538,-2.0864 -0.3603,-4.692 -2.5215,-5.3516 -1.5234,-0.416 -3.1338,-0.1269 -4.6949,-0.2129 -2.7917,0 -5.5839,-0.01 -8.3754,0 z"
         transform="matrix(0.55588448,0,0,0.57566619,1142.7925,1439.8416)" />
      <path
         id="path86"
         style="opacity:0.090909;mix-blend-mode:color-burn;fill:url(#pattern97);fill-opacity:1;stroke:url(#linearGradient116);stroke-width:1.59098;stroke-dasharray:none;filter:url(#filter93)"
         d="m 2567.3636,3383.3716 c -2.8361,0.03 -5.3079,2.6355 -5.1816,5.468 -0.015,2.0712 1.4592,3.694 2.3402,5.454 1.5585,2.6621 3.0065,5.3932 4.6337,8.0125 1.5931,2.1711 4.8862,2.7661 7.1315,1.2726 1.7606,-1.0822 2.4051,-3.1679 3.4798,-4.8232 1.4938,-2.6823 3.1079,-5.3016 4.5242,-8.0245 0.9936,-2.4742 -0.143,-5.5539 -2.5391,-6.7422 -1.8155,-0.9841 -3.9427,-0.5147 -5.9137,-0.625 -2.8249,0.01 -5.6506,-0.01 -8.475,0.01 z"
         transform="matrix(0.55588448,0,0,0.57566619,1142.7925,1439.8416)" />
      <path
         id="path87"
         style="opacity:0.090909;mix-blend-mode:color-burn;fill:url(#pattern97);fill-opacity:1;stroke:url(#linearGradient117);stroke-width:2.05639;stroke-dasharray:none;filter:url(#filter93)"
         d="m 2567.2621,3382.0533 c -3.1808,0.07 -6.035,2.7182 -6.3555,5.8808 -0.2841,1.8505 0.4265,3.6649 1.4254,5.1923 1.9038,3.2733 3.7083,6.6084 5.6742,9.8429 1.7557,2.5316 5.3632,3.488 8.1497,2.1801 1.7346,-0.7205 2.904,-2.2782 3.7179,-3.9143 1.829,-3.258 3.758,-6.4638 5.525,-9.7541 1.2987,-2.798 0.316,-6.4013 -2.2168,-8.162 -1.4911,-1.1408 -3.4192,-1.3818 -5.2434,-1.2775 -3.5587,0.01 -7.1186,-0.016 -10.6765,0.012 z"
         transform="matrix(0.43951096,0,0,0.43581874,1442.136,1914.9656)" />
      <path
         id="path88"
         style="opacity:0.090909;mix-blend-mode:color-burn;fill:url(#pattern97);fill-opacity:1;stroke:url(#linearGradient118);stroke-width:1.59098;stroke-dasharray:none;filter:url(#filter93)"
         d="m 2567.1605,3380.7349 c -3.3971,0.1055 -6.5215,2.6392 -7.3537,5.9295 -0.6526,2.2938 -0.1269,4.8012 1.1783,6.771 1.9676,3.3893 3.8438,6.836 5.8679,10.1899 1.8508,2.768 5.5421,4.0691 8.7311,3.1379 2.287,-0.6155 4.164,-2.3249 5.1901,-4.4377 1.927,-3.4322 3.9589,-6.8094 5.8199,-10.2761 1.393,-2.9902 0.6501,-6.7821 -1.738,-9.0525 -1.6996,-1.6907 -4.1503,-2.4422 -6.5175,-2.2776 -3.7258,0.01 -7.4534,-0.021 -11.1781,0.016 z"
         transform="matrix(0.55588448,0,0,0.57566619,1142.7925,1439.8416)" />
      <path
         id="path89"
         style="opacity:0.090909;mix-blend-mode:color-burn;fill:url(#pattern97);fill-opacity:1;stroke:url(#linearGradient119);stroke-width:1.54272;stroke-dasharray:none;filter:url(#filter93)"
         d="m 2567.0589,3379.4146 c -3.4688,0.1366 -6.721,2.4101 -8.0759,5.6017 -1.2595,2.8165 -0.9567,6.2219 0.7029,8.8149 2.0163,3.4785 3.9476,7.0103 6.017,10.4557 1.8958,2.8927 5.5119,4.4915 8.9305,4.0205 2.9923,-0.3763 5.7126,-2.298 7.0927,-4.9784 1.9917,-3.5422 4.0827,-7.0326 6.0126,-10.6071 1.474,-3.0487 1.0599,-6.8868 -0.9957,-9.574 -1.8257,-2.4842 -4.932,-3.9059 -8.0044,-3.7528 -3.8929,0.013 -7.788,-0.026 -11.6797,0.019 z"
         transform="matrix(0.57568238,0,0,0.59119358,1092.31,1386.7775)" />
    </g>
  </g>
</svg>
