<?xml version="1.0" encoding="UTF-8" standalone="no"?>
<!-- Created with Inkscape (http://www.inkscape.org/) -->

<svg
   width="20.000006mm"
   height="20.000008mm"
   viewBox="0 0 20.000006 20.000008"
   version="1.1"
   id="arrow"
   class="custom-arrow"
   xmlns="http://www.w3.org/2000/svg"
   xmlns:svg="http://www.w3.org/2000/svg">
   <link
    xmlns="http://www.w3.org/1999/xhtml"
    rel="stylesheet"
    href="../../src/styles.css"
    type="text/css" />
  <defs
     id="defs1">
    <clipPath
       clipPathUnits="userSpaceOnUse"
       id="clipPath84">
      <path
         id="arr"
         d="m 110.9352,134.63197 -4.70235,2.46939 v 4.93945 l -4.70235,2.46939 v 4.93878 l 4.70235,2.46939 4.70235,-2.46939 4.70234,2.46939 4.70235,-2.46939 v -4.93878 l -4.70235,-2.46939 v -4.93945 z m 0,3.15574 1.69799,0.89152 v 4.93878 l 4.70234,2.46939 v 1.78371 l -1.69799,0.89151 -4.70234,-2.46938 -4.70235,2.46938 -1.69799,-0.89151 v -1.78371 l 4.70235,-2.46939 v -4.93878 z m 0,0.59279 -1.13371,0.59479 v 4.93878 l -4.70235,2.47006 v 1.19025 l 1.13371,0.59546 4.70235,-2.46939 4.70234,2.46939 1.13445,-0.59546 v -1.19025 l -4.70308,-2.47006 v -4.93878 z m 29.34265,-3.74853 -4.70235,2.46939 v 4.93945 l -4.70235,2.46939 v 4.93878 l 4.70235,2.46939 4.70235,-2.46939 4.70235,2.46939 4.70235,-2.46939 v -4.93878 l -4.70235,-2.46939 v -4.93945 z m 0,3.15574 1.69799,0.89152 v 4.93878 l 4.70235,2.46939 v 1.78371 l -1.69799,0.89151 -4.70235,-2.46938 -4.70235,2.46938 -1.69799,-0.89151 v -1.78371 l 4.70235,-2.46939 v -4.93878 z m 0,0.59279 -1.13371,0.59479 v 4.93878 l -4.70235,2.47006 v 1.19025 l 1.13371,0.59546 4.70235,-2.46939 4.70235,2.46939 1.13444,-0.59546 v -1.19025 l -4.70308,-2.47006 v -4.93878 z m -14.67133,19.36616 -4.70235,2.46939 v 4.93944 l -4.70235,2.46939 v 4.93878 l 4.70235,2.46939 4.70235,-2.46939 4.70235,2.46939 4.70235,-2.46939 v -4.93878 l -4.70235,-2.46939 v -4.93944 z m 0,3.15574 1.69799,0.89151 v 4.93879 l 4.70235,2.46938 v 1.78371 l -1.69799,0.89152 -4.70235,-2.46939 -4.70235,2.46939 -1.69798,-0.89152 v -1.78371 l 4.70234,-2.46938 v -4.93879 z m 0,0.59279 -1.1337,0.59479 v 4.93877 l -4.70235,2.47006 v 1.19026 l 1.1337,0.59545 4.70235,-2.46939 4.70235,2.46939 1.13444,-0.59545 v -1.19026 l -4.70308,-2.47006 v -4.93877 z m 0,-34.56878 -4.70235,2.46939 v 4.93944 l -4.70235,2.46939 v 4.93878 l 4.70235,2.46939 4.70235,-2.46939 4.70235,2.46939 4.70235,-2.46939 v -4.93878 l -4.70235,-2.46939 v -4.93944 z m 0,3.15573 1.69799,0.89153 v 4.93878 l 4.70235,2.46938 v 1.78371 l -1.69799,0.89152 -4.70235,-2.46939 -4.70235,2.46939 -1.69798,-0.89152 v -1.78371 l 4.70234,-2.46938 v -4.93878 z m 0,0.5928 -1.1337,0.59479 v 4.93878 l -4.70235,2.47005 v 1.19026 l 1.1337,0.59546 4.70235,-2.4694 4.70235,2.4694 1.13444,-0.59546 v -1.19026 l -4.70308,-2.47005 v -4.93878 z m -14.67132,19.36615 -4.70235,2.46939 v 4.93945 l -4.70235,2.46939 v 4.93878 l 4.70235,2.46939 4.70235,-2.46939 4.70234,2.46939 4.70235,-2.46939 v -4.93878 l -4.70235,-2.46939 v -4.93945 z m 0,3.15574 1.69799,0.89152 v 4.93878 l 4.70234,2.46939 v 1.78371 l -1.69799,0.89152 -4.70234,-2.46939 -4.70235,2.46939 -1.69799,-0.89152 v -1.78371 l 4.70235,-2.46939 v -4.93878 z m 0,0.59279 -1.13371,0.59479 v 4.93878 l -4.70235,2.47006 v 1.19025 l 1.13371,0.59546 4.70235,-2.46939 4.70234,2.46939 1.13445,-0.59546 v -1.19025 l -4.70308,-2.47006 v -4.93878 z m 29.34265,-3.74853 -4.70235,2.46939 v 4.93945 l -4.70235,2.46939 v 4.93878 l 4.70235,2.46939 4.70235,-2.46939 4.70235,2.46939 4.70235,-2.46939 v -4.93878 l -4.70235,-2.46939 v -4.93945 z m 0,3.15574 1.69799,0.89152 v 4.93878 l 4.70235,2.46939 v 1.78371 l -1.69799,0.89152 -4.70235,-2.46939 -4.70235,2.46939 -1.69799,-0.89152 v -1.78371 l 4.70235,-2.46939 v -4.93878 z m 0,0.59279 -1.13371,0.59479 v 4.93878 l -4.70235,2.47006 v 1.19025 l 1.13371,0.59546 4.70235,-2.46939 4.70235,2.46939 1.13444,-0.59546 v -1.19025 l -4.70308,-2.47006 v -4.93878 z m -14.67133,-11.45409 -4.70235,2.46939 v 4.93945 l -4.70235,2.46939 v 4.93877 l 4.70235,2.46939 4.70235,-2.46939 4.70235,2.46939 4.70235,-2.46939 v -4.93877 l -4.70235,-2.46939 v -4.93945 z m 0,3.15574 1.69799,0.89152 v 4.93878 l 4.70235,2.46939 v 1.7837 l -1.69799,0.89152 -4.70235,-2.46938 -4.70235,2.46938 -1.69798,-0.89152 v -1.7837 l 4.70234,-2.46939 v -4.93878 z m 0,0.59279 -1.1337,0.59479 v 4.93878 l -4.70235,2.47005 v 1.19026 l 1.1337,0.59546 4.70235,-2.46939 4.70235,2.46939 1.13444,-0.59546 v -1.19026 l -4.70308,-2.47005 v -4.93878 z"
         style="fill:none;fill-opacity:1;stroke-width:1.07633;stroke-linecap:square;stroke-opacity:1;paint-order:stroke markers fill"
         clip-path="none" />
    </clipPath>
  </defs>
  <path
     id="path81"
     class="arrow-fill"
     d="m 131.37196,137.65153 -0.5116,0.072 -0.4966,0.1421 -0.4718,0.2103 -0.4383,0.2739 -0.3958,0.3323 -0.3462,0.3839 -0.2884,0.4284 -6.814,11.8014 -0.2259,0.464 -0.1602,0.492 -0.089,0.5085 -0.018,0.5168 0.054,0.5136 0.1251,0.5018 0.1938,0.479 0.2583,0.4476 0.3184,0.4072 0.3715,0.3591 0.4181,0.3034 0.4563,0.2428 0.4857,0.1768 0.5054,0.1075 0.5158,0.036 h 13.6265 l 0.5158,-0.036 0.5053,-0.1075 0.4853,-0.1768 0.4563,-0.2428 0.4181,-0.3034 0.372,-0.3591 0.3184,-0.4072 0.2583,-0.4476 0.1933,-0.479 0.1251,-0.5018 0.054,-0.5136 -0.018,-0.5168 -0.09,-0.5085 -0.1597,-0.492 -0.2263,-0.464 -6.8136,-11.8014 -0.2888,-0.4284 -0.3457,-0.3839 -0.3959,-0.3323 -0.4387,-0.2739 -0.4718,-0.2103 -0.4966,-0.1421 -0.5122,-0.072 z"
     style="stroke:black;opacity:1;stroke-width:1"
     clip-path="url(#clipPath84)"
     transform="matrix(-0.95098617,0,0,-1.041645,135.1798,163.38403)" />
</svg>
