<?xml version="1.0" encoding="UTF-8" standalone="no"?>
<svg
   version="1.0"
   width="1091.6888pt"
   height="1019.8073pt"
   viewBox="0 0 1091.6888 1019.8073"
   preserveAspectRatio="xMidYMid"
   id="AnimatedSVG"
   xml:space="preserve"
   xmlns="http://www.w3.org/2000/svg"
   xmlns:svg="http://www.w3.org/2000/svg"
   xmlns:rdf="http://www.w3.org/1999/02/22-rdf-syntax-ns#"
   xmlns:cc="http://creativecommons.org/ns#"
   xmlns:dc="http://purl.org/dc/elements/1.1/"><title
     id="title106719">Ctrl-Alt-Delinquent Animated SVG</title><defs
     id="defs34" /><metadata
     id="metadata1"><rdf:RDF><cc:Work
         rdf:about=""><dc:title>Ctrl-Alt-Delinquent Animated SVG</dc:title><dc:creator><cc:Agent><dc:title>Code-Nit-Whit</dc:title></cc:Agent></dc:creator><dc:rights><cc:Agent><dc:title>C. Whitaker</dc:title></cc:Agent></dc:rights><dc:source>https://www.github.com/Code-Nit-Whit/Animated-SVG</dc:source><dc:language>XML, HTML, CSS, JavaScript</dc:language><dc:publisher><cc:Agent><dc:title>C. Whitaker</dc:title></cc:Agent></dc:publisher><dc:subject><rdf:Bag><rdf:li>svg</rdf:li><rdf:li>animation</rdf:li><rdf:li>animated</rdf:li><rdf:li>gif</rdf:li><rdf:li>vector</rdf:li><rdf:li>video</rdf:li><rdf:li>css</rdf:li><rdf:li>html</rdf:li></rdf:Bag></dc:subject><dc:date>01/2024</dc:date><dc:identifier>https://www.github.com/Code-Nit-Whit/Animated-SVG/CAD-Static-Inkscape.svg</dc:identifier><dc:description>An svg css animation for GIF conversion to use in a Discord server</dc:description><cc:license
           rdf:resource="http://creativecommons.org/licenses/by-nc-nd/4.0/" /></cc:Work><cc:License
         rdf:about="http://creativecommons.org/licenses/by-nc-nd/4.0/"><cc:permits
           rdf:resource="http://creativecommons.org/ns#Reproduction" /><cc:permits
           rdf:resource="http://creativecommons.org/ns#Distribution" /><cc:requires
           rdf:resource="http://creativecommons.org/ns#Notice" /><cc:requires
           rdf:resource="http://creativecommons.org/ns#Attribution" /><cc:prohibits
           rdf:resource="http://creativecommons.org/ns#CommercialUse" /></cc:License></rdf:RDF></metadata><g
     id="KeyboardLayer"
     style="display:inline"
     transform="matrix(1.273688,0,0,1.273688,-5222.9421,3338.6176)"><g
       transform="translate(3633.3862,-2802.0102)"
       id="KeyboardGrp"><path
         d="M 490.89134,200.23571 V 881.94479 H 1304.87 V 200.23571 Z"
         style="fill:#0d0d0d"
         id="path84" /><path
         d="m 490.39796,181.28929 c -5.967,0 -11.69007,2.37096 -15.90907,6.58996 -4.21999,4.21999 -6.59111,9.94322 -6.59111,15.91021 v 10.6992 c 0,-5.96699 2.37112,-11.69022 6.59111,-15.91021 4.219,-4.219 9.94207,-6.58997 15.90907,-6.58997 h 809.75214 c 5.97,0 11.6902,2.37097 15.9102,6.58997 4.22,4.21999 6.59,9.94322 6.59,15.91021 v -10.6992 c 0,-5.96699 -2.37,-11.69022 -6.59,-15.91021 -4.22,-4.219 -9.9402,-6.58996 -15.9102,-6.58996 z m 38.553,38.55299 c -5.967,0 -11.69022,2.36997 -15.91022,6.58997 -4.21899,4.21899 -6.58996,9.94222 -6.58996,15.91021 v 10.6992 c 0,-5.968 2.37097,-11.69122 6.58996,-15.91022 4.22,-4.21999 9.94322,-6.58996 15.91022,-6.58996 h 732.64954 c 5.97,0 11.6891,2.36997 15.9091,6.58996 4.22,4.219 6.59,9.94222 6.59,15.91022 v -10.6992 c 0,-5.96799 -2.37,-11.69122 -6.59,-15.91021 -4.22,-4.22 -9.9391,-6.58997 -15.9091,-6.58997 z m -22.50018,617.66915 v 10.70034 c 0,5.967 2.37097,11.69022 6.58996,15.91022 4.22,4.21899 9.94322,6.58996 15.91022,6.58996 h 732.64954 c 5.97,0 11.6891,-2.37097 15.9091,-6.58996 4.22,-4.22 6.59,-9.94322 6.59,-15.91022 v -10.70034 c 0,5.96699 -2.37,11.69021 -6.59,15.91021 -4.22,4.219 -9.9391,6.58996 -15.9091,6.58996 H 528.95096 c -5.967,0 -11.69022,-2.37096 -15.91022,-6.58996 -4.21899,-4.22 -6.58996,-9.94322 -6.58996,-15.91021 z m -38.69216,12.85675 v 80.81845 c 4.29197,31.87429 10.11366,49.77549 16.18394,49.77549 h 823.74054 c 6.0732,0 11.8917,-17.9012 16.184,-49.77549 v -80.81845 c -0.3746,2.78157 -0.8199,4.84269 -1.2168,7.40881 -4.1521,26.83961 -9.424,42.36667 -14.9672,42.36667 H 483.94256 c -6.07028,0 -11.89197,-17.9009 -16.18394,-49.77548 z"
         style="display:inline;stroke:white"
         id="path82" /><path
         d="m 490.39796,181.28929 a 22.5,22.5 0 0 0 -22.49903,22.50017 v 672.27496 a 22.5,22.5 0 0 0 22.49903,22.50018 h 809.75674 a 22.5,22.5 0 0 0 22.5002,-22.50018 V 203.78946 a 22.5,22.5 0 0 0 -22.5002,-22.50017 z m 38.553,38.55299 h 732.65074 a 22.5,22.5 0 0 1 22.5002,22.49903 v 595.17012 a 22.5,22.5 0 0 1 -22.5002,22.50017 H 528.95096 A 22.5,22.5 0 0 1 506.45078,837.51143 V 242.34131 a 22.5,22.5 0 0 1 22.50018,-22.49903 z"
         style="display:inline;stroke:white"
         id="path83" /></g><g
       id="g199"
       transform="translate(3627.6501,-2802.3683)"><path
         d="m 714.38949,254.66139 c -7.69459,0 -15.07334,2.738 -20.51399,7.61123 -5.44066,4.87324 -8.49795,11.48273 -8.49795,18.37484 v 9.99994 c 0,-6.89209 3.05729,-13.50274 8.49795,-18.37598 5.44065,-4.87325 12.8194,-7.61009 20.51399,-7.61009 h 70.85875 c 7.69459,0 15.07219,2.73684 20.51284,7.61009 5.44066,4.87324 8.49794,11.48389 8.49794,18.37598 v -9.99994 c 0,-6.89211 -3.05728,-13.5016 -8.49794,-18.37484 -5.44065,-4.87323 -12.81825,-7.61123 -20.51284,-7.61123 z m 146.12807,0.28867 c -6.77132,0 -13.26634,2.73932 -18.05511,7.61123 -4.78877,4.87324 -7.48012,11.48274 -7.48012,18.37483 v 9.9988 c 0,-6.89076 2.69135,-13.49929 7.48012,-18.37253 4.78877,-4.87323 11.28379,-7.61238 18.05511,-7.61238 h 140.41564 c 6.7713,0 13.2664,2.73915 18.0551,7.61238 4.7888,4.87324 7.4801,11.48177 7.4801,18.37253 v -9.9988 c 0,-6.89209 -2.6913,-13.50159 -7.4801,-18.37483 -4.7887,-4.87191 -11.2838,-7.61123 -18.0551,-7.61123 z m 214.89024,0 c -7.4839,0 -14.6623,2.73932 -19.955,7.61123 -5.2928,4.87324 -8.2668,11.48274 -8.2668,18.37483 v 9.9988 c 0,-6.89076 2.974,-13.49929 8.2668,-18.37253 5.2927,-4.87323 12.4711,-7.61238 19.955,-7.61238 h 155.193 c 7.484,0 14.6623,2.73915 19.9551,7.61238 5.2927,4.87324 8.2667,11.48177 8.2667,18.37253 v -9.9988 c 0,-6.89209 -2.974,-13.50159 -8.2667,-18.37483 -5.2928,-4.87191 -12.4711,-7.61123 -19.9551,-7.61123 z m -510.6231,1.11557 c -7.69457,0 -15.07217,2.73684 -20.51282,7.61009 -5.44067,4.87324 -8.49796,11.48273 -8.49796,18.37484 v 9.99994 c 0,-6.89209 3.05729,-13.50159 8.49796,-18.37484 5.44065,-4.87323 12.81825,-7.61008 20.51282,-7.61008 h 70.85991 c 7.6946,0 15.07219,2.73685 20.51284,7.61008 5.44067,4.87325 8.49795,11.48275 8.49795,18.37484 v -9.99994 c 0,-6.89211 -3.05728,-13.5016 -8.49795,-18.37484 -5.44065,-4.87325 -12.81824,-7.61009 -20.51284,-7.61009 z m 120.59285,90.82071 v 9.99995 c 0,6.89077 3.05729,13.50045 8.49795,18.37369 5.44065,4.87324 12.8194,7.61238 20.51399,7.61238 h 70.85875 c 7.69459,0 15.07219,-2.73914 20.51284,-7.61238 5.44066,-4.87324 8.49794,-11.48292 8.49794,-18.37369 v -9.99995 c 0,6.89209 -3.05728,13.5016 -8.49794,18.37484 -5.44065,4.87323 -12.81825,7.61009 -20.51284,7.61009 h -70.85875 c -7.69459,0 -15.07334,-2.73686 -20.51399,-7.61009 -5.44066,-4.87324 -8.49795,-11.48275 -8.49795,-18.37484 z m 149.60478,0.28867 v 9.99996 c 0,6.89169 2.69135,13.50172 7.48012,18.37484 4.78877,4.87323 11.28379,7.61123 18.05511,7.61123 h 140.41564 c 6.7713,0 13.2664,-2.738 18.0551,-7.61123 4.7888,-4.87312 7.4801,-11.48315 7.4801,-18.37484 v -9.99996 c 0,6.8917 -2.6913,13.5016 -7.4801,18.37484 -4.7887,4.87311 -11.2838,7.61123 -18.0551,7.61123 H 860.51756 c -6.77132,0 -13.26634,-2.73812 -18.05511,-7.61123 -4.78877,-4.87324 -7.48012,-11.48314 -7.48012,-18.37484 z m 212.20367,0 v 9.99996 c 0,6.89169 2.974,13.50172 8.2668,18.37484 5.2927,4.87323 12.4711,7.61123 19.955,7.61123 h 155.193 c 7.484,0 14.6623,-2.738 19.9551,-7.61123 5.2927,-4.87312 8.2667,-11.48315 8.2667,-18.37484 v -9.99996 c 0,6.8917 -2.974,13.5016 -8.2667,18.37484 -5.2928,4.87311 -12.4711,7.61123 -19.9551,7.61123 h -155.193 c -7.4839,0 -14.6623,-2.73812 -19.955,-7.61123 -5.2928,-4.87324 -8.2668,-11.48314 -8.2668,-18.37484 z m -511.41208,1.11443 v 10.0011 c 0,6.89077 3.05729,13.50044 8.49796,18.37369 5.44065,4.87324 12.81825,7.61123 20.51282,7.61123 h 70.85991 c 7.6946,0 15.07219,-2.73799 20.51284,-7.61123 5.44067,-4.87325 8.49795,-11.48292 8.49795,-18.37369 v -10.0011 c 0,6.89209 -3.05728,13.5016 -8.49795,18.37484 -5.44065,4.87323 -12.81824,7.61009 -20.51284,7.61009 H 564.7847 c -7.69457,0 -15.07217,-2.73686 -20.51282,-7.61009 -5.44067,-4.87324 -8.49796,-11.48275 -8.49796,-18.37484 z m 29.01194,57.47527 c -7.69459,0 -15.07217,2.73684 -20.51284,7.61009 -5.44066,4.87324 -8.49794,11.48273 -8.49794,18.37484 v 9.99994 c 0,-6.89209 3.05728,-13.50159 8.49794,-18.37484 5.44067,-4.87323 12.81825,-7.61007 20.51284,-7.61007 h 70.85875 c 7.6946,0 15.07334,2.73684 20.51399,7.61007 5.44067,4.87325 8.49796,11.48275 8.49796,18.37484 v -9.99994 c 0,-6.89211 -3.05729,-13.5016 -8.49796,-18.37484 -5.44065,-4.87325 -12.81939,-7.61009 -20.51399,-7.61009 z m 597.28514,0 c -7.6946,0 -15.0722,2.73684 -20.5129,7.61009 -5.4406,4.87324 -8.4979,11.48273 -8.4979,18.37484 v 9.99994 c 0,-6.89209 3.0573,-13.50159 8.4979,-18.37484 5.4407,-4.87323 12.8183,-7.61007 20.5129,-7.61007 h 70.8587 c 7.6946,0 15.0722,2.73684 20.5129,7.61007 5.4406,4.87325 8.4979,11.48275 8.4979,18.37484 v -9.99994 c 0,-6.89211 -3.0573,-13.5016 -8.4979,-18.37484 -5.4407,-4.87325 -12.8183,-7.61009 -20.5129,-7.61009 z m -626.29592,92.22381 v 10.0011 c 0,6.89077 3.05728,13.50044 8.49794,18.37369 5.44067,4.87324 12.81825,7.61123 20.51284,7.61123 h 70.85875 c 7.6946,0 15.07334,-2.73799 20.51399,-7.61123 5.44067,-4.87325 8.49796,-11.48292 8.49796,-18.37369 v -10.0011 c 0,6.89209 -3.05729,13.5016 -8.49796,18.37484 -5.44065,4.87323 -12.81939,7.61009 -20.51399,7.61009 h -70.85875 c -7.69459,0 -15.07217,-2.73686 -20.51284,-7.61009 -5.44066,-4.87324 -8.49794,-11.48275 -8.49794,-18.37484 z m 597.28512,0 v 10.0011 c 0,6.89077 3.0573,13.50044 8.4979,18.37369 5.4407,4.87324 12.8183,7.61123 20.5129,7.61123 h 70.8587 c 7.6946,0 15.0722,-2.73799 20.5129,-7.61123 5.4406,-4.87325 8.4979,-11.48292 8.4979,-18.37369 v -10.0011 c 0,6.89209 -3.0573,13.5016 -8.4979,18.37484 -5.4407,4.87323 -12.8183,7.61009 -20.5129,7.61009 h -70.8587 c -7.6946,0 -15.0722,-2.73686 -20.5129,-7.61009 -5.4406,-4.87324 -8.4979,-11.48275 -8.4979,-18.37484 z m -568.27434,58.59661 c -7.69459,0 -15.07217,2.73684 -20.51284,7.61007 -5.44066,4.87325 -8.49794,11.48275 -8.49794,18.37484 v 9.99995 c 0,-6.89209 3.05728,-13.5016 8.49794,-18.37483 5.44067,-4.87324 12.81825,-7.61124 20.51284,-7.61124 h 70.85875 c 7.6946,0 15.07334,2.738 20.51399,7.61124 5.44067,4.87323 8.49796,11.48274 8.49796,18.37483 v -9.99995 c 0,-6.89209 -3.05729,-13.50159 -8.49796,-18.37484 -5.44065,-4.87323 -12.81939,-7.61007 -20.51399,-7.61007 z m 597.82224,0.0195 c -7.6946,0 -15.0722,2.73684 -20.5129,7.61008 -5.4406,4.87324 -8.4979,11.48274 -8.4979,18.37483 v 9.99996 c 0,-6.8921 3.0573,-13.50161 8.4979,-18.37484 5.4407,-4.87324 12.8183,-7.61008 20.5129,-7.61008 h 70.8599 c 7.6946,0 15.0721,2.73684 20.5128,7.61008 5.4407,4.87323 8.498,11.48274 8.498,18.37484 v -9.99996 c 0,-6.89209 -3.0573,-13.50159 -8.498,-18.37483 -5.4407,-4.87324 -12.8182,-7.61008 -20.5128,-7.61008 z m -626.83302,92.20425 v 9.99994 c 0,6.89078 3.05728,13.50045 8.49794,18.3737 5.44067,4.87324 12.81825,7.61237 20.51284,7.61237 h 70.85875 c 7.6946,0 15.07334,-2.73913 20.51399,-7.61237 5.44067,-4.87325 8.49796,-11.48292 8.49796,-18.3737 v -9.99994 c 0,6.8921 -3.05729,13.50159 -8.49796,18.37484 -5.44065,4.87324 -12.81939,7.61008 -20.51399,7.61008 h -70.85875 c -7.69459,0 -15.07217,-2.73684 -20.51284,-7.61008 -5.44066,-4.87325 -8.49794,-11.48274 -8.49794,-18.37484 z m 597.82222,0.0195 v 10.0011 c 0,6.89076 3.0573,13.50045 8.4979,18.37368 5.4407,4.87325 12.8183,7.61125 20.5129,7.61125 h 70.8599 c 7.6946,0 15.0721,-2.738 20.5128,-7.61125 5.4407,-4.87323 8.498,-11.48292 8.498,-18.37368 v -10.0011 c 0,6.8921 -3.0573,13.5016 -8.498,18.37484 -5.4407,4.87324 -12.8182,7.61008 -20.5128,7.61008 h -70.8599 c -7.6946,0 -15.0722,-2.73684 -20.5129,-7.61008 -5.4406,-4.87324 -8.4979,-11.48274 -8.4979,-18.37484 z m -61.7961,58.58051 c -7.9341,0 -15.5447,2.73817 -21.1558,7.61008 -5.611,4.87323 -8.7636,11.48274 -8.7636,18.37483 v 9.99996 c 0,-6.89077 3.1526,-13.50045 8.7636,-18.3737 5.6111,-4.87324 13.2217,-7.61237 21.1558,-7.61237 h 164.5259 c 7.934,0 15.5447,2.73913 21.1557,7.61237 5.611,4.87325 8.7636,11.48293 8.7636,18.3737 v -9.99996 c 0,-6.89209 -3.1526,-13.5016 -8.7636,-18.37483 -5.611,-4.87191 -13.2217,-7.61008 -21.1557,-7.61008 z m -508.98543,3.87922 c -7.09795,0 -13.90594,2.65532 -18.92572,7.38006 -5.01977,4.72603 -7.84125,11.13659 -7.84125,17.8205 v 9.69748 c 0,-6.68261 2.82148,-13.09332 7.84125,-17.81935 5.01978,-4.72602 11.82777,-7.38122 18.92572,-7.38122 h 428.75462 c 7.09933,0 13.90711,2.6552 18.92691,7.38122 5.0197,4.72603 7.8401,11.13674 7.8401,17.81935 v -9.69748 c 0,-6.68391 -2.8204,-13.09447 -7.8401,-17.8205 -5.0198,-4.72474 -11.82758,-7.38006 -18.92691,-7.38006 z m 479.06603,88.34458 v 10.0011 c 0,6.8917 3.1526,13.50058 8.7636,18.37369 5.6111,4.87324 13.2217,7.61123 21.1558,7.61123 h 164.5259 c 7.934,0 15.5447,-2.73799 21.1557,-7.61123 5.611,-4.87311 8.7636,-11.48199 8.7636,-18.37369 v -10.0011 c 0,6.8917 -3.1526,13.50159 -8.7636,18.37484 -5.611,4.8731 -13.2217,7.61123 -21.1557,7.61123 h -164.5259 c -7.9341,0 -15.5447,-2.73813 -21.1558,-7.61123 -5.611,-4.87325 -8.7636,-11.48314 -8.7636,-18.37484 z m -505.833,1.09372 v 9.69863 c 0,6.68352 2.82148,13.09345 7.84125,17.81935 5.01978,4.72603 11.82777,7.38007 18.92572,7.38007 h 428.75462 c 7.09933,0 13.90711,-2.65404 18.92691,-7.38007 5.0197,-4.7259 7.8401,-11.13583 7.8401,-17.81935 v -9.69863 c 0,6.68352 -2.8204,13.09333 -7.8401,17.81935 -5.0198,4.7259 -11.82758,7.38122 -18.92691,7.38122 H 562.81577 c -7.09795,0 -13.90594,-2.65532 -18.92572,-7.38122 -5.01977,-4.72602 -7.84125,-11.13583 -7.84125,-17.81935 z"
         style="stroke:white;stroke-width:1"
         id="path78" /><path
         d="m 714.38949,254.66139 a 29.01093,25.98531 0 0 0 -29.01078,25.98492 v 66.24003 a 29.01093,25.98531 0 0 0 29.01078,25.98493 h 70.85875 a 29.01093,25.98531 0 0 0 29.01078,-25.98493 v -66.24003 a 29.01093,25.98531 0 0 0 -29.01078,-25.98492 z m 146.12807,0.28867 a 25.53486,25.98531 0 0 0 -25.53408,25.98606 v 66.23889 a 25.53486,25.98531 0 0 0 25.53408,25.98607 h 140.41564 a 25.53486,25.98531 0 0 0 25.5341,-25.98607 v -66.23889 a 25.53486,25.98531 0 0 0 -25.5341,-25.98606 z m 214.89024,0 a 28.222156,25.98531 0 0 0 -28.2218,25.98606 v 66.23889 a 28.222156,25.98531 0 0 0 28.2218,25.98607 h 155.1919 a 28.222156,25.98531 0 0 0 28.2229,-25.98607 v -66.23889 a 28.222156,25.98531 0 0 0 -28.2229,-25.98606 z m -510.62194,1.11557 a 29.01093,25.98531 0 0 0 -29.01078,25.98493 v 66.23888 a 29.01093,25.98531 0 0 0 29.01078,25.98607 h 70.85875 a 29.01093,25.98531 0 0 0 29.01079,-25.98607 v -66.23888 a 29.01093,25.98531 0 0 0 -29.01079,-25.98493 z m 0,149.69794 a 29.01093,25.98531 0 0 0 -29.01078,25.98607 v 66.23888 a 29.01093,25.98531 0 0 0 29.01078,25.98607 h 70.85875 a 29.01093,25.98531 0 0 0 29.01079,-25.98607 v -66.23888 a 29.01093,25.98531 0 0 0 -29.01079,-25.98607 z m 597.28514,0 a 29.01093,25.98531 0 0 0 -29.0108,25.98607 v 66.23888 a 29.01093,25.98531 0 0 0 29.0108,25.98607 h 70.8587 a 29.01093,25.98531 0 0 0 29.0108,-25.98607 v -66.23888 a 29.01093,25.98531 0 0 0 -29.0108,-25.98607 z m -597.28514,150.8204 a 29.01093,25.98531 0 0 0 -29.01078,25.98492 v 66.24004 a 29.01093,25.98531 0 0 0 29.01078,25.98492 h 70.85875 a 29.01093,25.98531 0 0 0 29.01079,-25.98492 v -66.24004 a 29.01093,25.98531 0 0 0 -29.01079,-25.98492 z m 597.82334,0.0207 a 29.01093,25.98531 0 0 0 -29.0119,25.98491 v 66.23889 a 29.01093,25.98531 0 0 0 29.0119,25.98607 h 70.8588 a 29.01093,25.98531 0 0 0 29.0108,-25.98607 v -66.23889 a 29.01093,25.98531 0 0 0 -29.0108,-25.98491 z m -90.808,150.80431 a 29.919435,25.98531 0 0 0 -29.9194,25.98491 v 66.23889 a 29.919435,25.98531 0 0 0 29.9194,25.98607 h 164.5247 a 29.919435,25.98531 0 0 0 29.9205,-25.98607 V 733.3939 a 29.919435,25.98531 0 0 0 -29.9205,-25.98491 z m -91.10942,3.56064 c -7.33056,0.0805 -16.2481,0.48074 -27.36387,0.48074 H 601.05136 c -23.99517,0 -37.90372,-0.27095 -46.44946,1.64231 -5.30342,1.18736 -8.54109,3.70168 -10.84296,6.17363 -3.49465,3.75281 -6.77053,9.01867 -6.77053,17.28687 v 63.98817 c 0,13.587 6.58495,21.08203 19.42256,23.94123 10.85735,2.41815 26.32638,1.16043 44.64039,1.16043 h 352.27655 c 24.28053,0 40.19365,1.29352 49.57649,-1.59286 7.011,-2.15673 10.0349,-6.23398 11.9402,-9.83319 2.6176,-4.94481 2.5451,-9.68728 2.5451,-13.67561 v -63.98817 c 0,-9.54671 -3.17,-19.92678 -18.85672,-24.14365 -4.76705,-1.28147 -10.51064,-1.5204 -17.8412,-1.4399 z"
         style="stroke:white;stroke-width:1"
         id="path77" /><path
         id="path18"
         style="display:inline;fill:none;stroke:#4d4d4d;stroke-width:8.88889;stroke-opacity:1"
         d="m 1185.094,456.82799 c 0,-7.40741 1.4815,-16.2963 13.3333,-16.2963 5.926,0 11.8519,4.44445 11.8519,10.37037 0,5.92593 -2.963,8.88889 -5.9259,10.37037 -2.963,1.48148 -5.926,2.96297 -5.926,7.40741 0,4.44444 0,8.88889 0,8.88889 m 35.5556,-14.81482 a 35.555556,35.555556 0 0 1 -35.5556,35.55556 35.555556,35.555556 0 0 1 -35.5555,-35.55556 35.555556,35.555556 0 0 1 35.5555,-35.55555 35.555556,35.555556 0 0 1 35.5556,35.55555 z M 635.12413,641.43989 610.54231,616.71261 m -45.23636,24.72728 24.58181,-24.72728 m -26.03636,-28 32,32.87273 c 2.32727,2.32727 6.4,2.32727 8.72727,0.0182 l 32.00001,-32.89091 m -73.45455,54.32728 h 74.18182 V 588.349 h -74.18182 z" /><path
         id="path34"
         style="display:inline;fill:#4d4d4d"
         d="m 631.7677,287.79406 c -0.75,2.60156 -2.25027,4.47661 -4.50026,5.62504 -2.22656,1.125 -5.36678,1.68832 -9.42146,1.68832 l -1.02012,4.53477 h 10.89931 l -8.22653,35.57774 h -10.75785 l -1.19608,5.0983 h 28.40699 l 1.19493,-5.0983 h -10.82801 l 10.93382,-47.42587 z m -56.49655,0.17596 -12.0931,52.34821 h 7.03159 l 5.87116,-25.31327 h 22.71064 l 1.3709,-5.90566 h -22.74629 l 3.55145,-15.18797 h 26.4369 l 1.33639,-5.94131 z m 200.61544,-0.63255 c -2.64844,0 -5.41387,0.33929 -8.29668,1.01898 -2.88281,0.65625 -5.25019,1.40696 -7.10175,2.2507 l -1.40539,7.13625 h 0.35077 c 2.57812,-1.47656 5.20388,-2.60089 7.87575,-3.37433 2.69531,-0.79688 5.08597,-1.19609 7.1719,-1.19609 2.55469,0 4.64041,0.5866 6.25759,1.75848 1.64063,1.17187 2.46117,2.90608 2.46117,5.20296 0,2.95312 -1.18425,6.00022 -3.55145,9.14084 -2.34374,3.11718 -6.37434,6.9604 -12.09309,11.53071 -3.25781,2.60156 -6.04768,4.75827 -8.36799,6.4692 -2.29688,1.6875 -5.09665,3.73772 -8.40134,6.15178 l -1.65266,7.34787 h 35.47193 l 1.30189,-5.76536 h -28.12522 c 2.20312,-1.57031 4.99184,-3.5984 8.36684,-6.08277 3.39844,-2.50781 6.70276,-5.08586 9.91369,-7.7343 5.39062,-4.47655 9.164,-8.3896 11.32025,-11.74117 2.15624,-3.37499 3.23517,-6.94992 3.23517,-10.72335 0,-3.49218 -1.27738,-6.25761 -3.83207,-8.29668 -2.55468,-2.0625 -6.18838,-3.09372 -10.89931,-3.09372 z m -54.77258,1.09028 -12.09425,52.34707 h 7.03159 l 5.87116,-25.31213 h 22.71064 l 1.3709,-5.90681 h -22.74629 l 3.55145,-15.18681 h 26.4369 l 1.33639,-5.94132 z m 162.65933,0.17481 -1.16043,5.09831 h 6.85563 l -9.77338,42.1516 h -6.85563 l -1.16043,5.09831 h 20.74285 l 1.15928,-5.09831 h -6.85563 l 9.77454,-42.1516 h 6.85448 l 1.16043,-5.09831 z m 48.41034,11.98844 c -2.32031,0 -4.58235,0.46905 -6.78547,1.40655 -2.17969,0.9375 -4.52378,2.28472 -7.03159,4.04253 l 1.02012,-4.3588 h -6.60952 l -9.07068,39.2695 h 6.60951 l 6.78548,-29.32015 c 2.03906,-1.35938 4.12477,-2.53143 6.25759,-3.5158 2.15624,-0.98438 4.12441,-1.4767 5.90566,-1.4767 2.53124,0 4.27768,0.50339 5.23862,1.5112 0.98437,0.98437 1.4767,2.46136 1.4767,4.43011 0,0.91406 -0.0821,1.83995 -0.24612,2.77745 -0.14062,0.91406 -0.3513,1.99184 -0.63254,3.23402 l -5.16846,22.35987 h 6.60951 l 5.90681,-25.48809 c 0.1875,-0.72656 0.32718,-1.57038 0.42093,-2.53132 0.11719,-0.96094 0.17596,-1.72271 0.17596,-2.28521 0,-3.25781 -0.96023,-5.74274 -2.8821,-7.45368 -1.89844,-1.73437 -4.55854,-2.60148 -7.98041,-2.60148 z m 38.77727,0.14146 c -2.83594,0 -5.41399,0.39806 -7.73429,1.19494 -2.32031,0.77343 -4.23086,1.79243 -5.73085,3.05806 -1.57032,1.33594 -2.75458,2.80071 -3.55145,4.39446 -0.79688,1.59375 -1.19494,3.30469 -1.19494,5.13281 0,2.10937 0.65644,3.90237 1.96894,5.37892 1.3125,1.45313 3.33944,2.5664 6.08163,3.33984 1.3125,0.35156 2.60209,0.6565 3.86772,0.91431 1.28906,0.25781 2.39012,0.49291 3.30418,0.70385 1.80468,0.42187 3.1874,0.97183 4.14834,1.65152 0.96093,0.65625 1.4422,1.60541 1.4422,2.8476 0,2.36718 -0.9381,4.16017 -2.8131,5.37892 -1.87499,1.21875 -4.46411,1.82863 -7.76879,1.82863 -1.61719,0 -3.14074,-0.18739 -4.57042,-0.56239 -1.40625,-0.39843 -2.66035,-0.86748 -3.76191,-1.40655 -1.21875,-0.5625 -2.22669,-1.12467 -3.02357,-1.68717 -0.77343,-0.58593 -1.40659,-1.09047 -1.89878,-1.51235 h -0.35077 l -1.47671,7.06724 c 1.54688,0.84375 3.46848,1.6288 5.76536,2.35537 2.3203,0.72656 4.94491,1.08912 7.8746,1.08912 2.95312,0 5.61322,-0.37478 7.98041,-1.12477 2.36719,-0.75 4.38306,-1.79344 6.04712,-3.12937 1.61719,-1.26563 2.84801,-2.75368 3.69176,-4.46462 0.86718,-1.73437 1.30074,-3.50408 1.30074,-5.30877 0,-2.15625 -0.69193,-3.94924 -2.07475,-5.37892 -1.35937,-1.42969 -3.39852,-2.48419 -6.11727,-3.16388 -1.17188,-0.28125 -2.39048,-0.53848 -3.65611,-0.77285 -1.24218,-0.25781 -2.43751,-0.52726 -3.58595,-0.80851 -1.82812,-0.44531 -3.18756,-1.05519 -4.07819,-1.82862 -0.89062,-0.79688 -1.33524,-1.78154 -1.33524,-2.95341 0,-2.13281 0.91367,-3.80825 2.74179,-5.027 1.82813,-1.24219 4.20657,-1.86313 7.13625,-1.86313 1.45312,0 2.84806,0.1641 4.184,0.49223 1.35937,0.32813 2.54363,0.71512 3.55144,1.16043 1.17188,0.53906 2.13211,1.06574 2.88211,1.58136 0.77343,0.51563 1.34782,0.9259 1.72282,1.23059 h 0.35192 l 1.4054,-6.74982 c -1.47656,-0.86719 -3.38595,-1.59347 -5.7297,-2.17941 -2.32031,-0.58594 -4.65219,-0.87866 -6.99594,-0.87866 z m 237.38235,-14.57267 -12.6566,54.70243 h 6.6796 l 2.8833,-12.65548 5.6952,-4.60608 12.5508,17.26156 h 8.0161 l -15.3283,-20.70605 22.3944,-18.56345 h -8.6831 l -23.0281,19.72273 8.1564,-35.15566 z m -130.4651,2.35537 -12.0586,52.34706 h 19.2305 c 3.6328,0 6.6921,-0.316 9.1765,-0.94881 2.4844,-0.65625 4.8628,-1.74625 7.1362,-3.26968 2.414,-1.64063 4.3589,-3.78512 5.8355,-6.43355 1.5,-2.67187 2.2507,-5.49608 2.2507,-8.47265 0,-2.71874 -0.7507,-4.94529 -2.2507,-6.67966 -1.4766,-1.73438 -3.6211,-2.91749 -6.4335,-3.5503 v -0.28177 c 3.0234,-1.26562 5.3908,-3.05862 7.1017,-5.37893 1.711,-2.32031 2.567,-4.99147 2.567,-8.01491 0,-1.5 -0.3282,-2.85944 -0.9845,-4.07819 -0.6328,-1.24218 -1.5941,-2.26233 -2.8832,-3.05921 -1.5469,-0.9375 -3.2578,-1.53516 -5.1328,-1.79298 -1.8516,-0.2578 -4.6869,-0.38642 -8.5072,-0.38642 z m 5.7308,5.6952 h 7.9459 c 2.3438,0 4.2532,0.0943 5.7297,0.28177 1.4766,0.16406 2.7075,0.57433 3.6918,1.23058 0.6094,0.42187 1.0784,0.96077 1.4065,1.61701 0.3282,0.63282 0.4923,1.44115 0.4923,2.42552 0,1.47656 -0.387,3.00011 -1.1604,4.57042 -0.7734,1.54688 -1.8867,2.7422 -3.3399,3.58596 -1.125,0.6328 -2.4379,1.10185 -3.9379,1.40654 -1.5,0.28125 -3.2574,0.42093 -5.2731,0.42093 h -9.1408 z m 53.649,6.43355 c -2.3672,0 -4.8399,0.22288 -7.418,0.66819 -2.5782,0.44532 -4.5353,0.84338 -5.8712,1.19494 l -1.3007,6.60951 h 0.3507 c 1.5938,-0.63281 3.6684,-1.26597 6.2231,-1.89878 2.5547,-0.65625 4.8278,-0.98447 6.82,-0.98447 1.3125,0 2.5078,0.0821 3.586,0.24611 1.1016,0.14063 2.0629,0.42229 2.8832,0.84416 0.8203,0.42188 1.4535,0.98405 1.8988,1.68717 0.4453,0.70313 0.667,1.61794 0.667,2.74294 0,0.51562 -0.046,1.01902 -0.1403,1.51121 -0.094,0.46875 -0.2112,1.03092 -0.3519,1.68717 -4.7812,0.14062 -9.0469,0.51655 -12.7969,1.12593 -3.7266,0.58593 -6.9134,1.54616 -9.5618,2.8821 -2.6953,1.35937 -4.7345,3.11802 -6.1173,5.27427 -1.3594,2.1328 -2.0391,4.75741 -2.0391,7.8746 0,2.92968 0.9724,5.30813 2.9178,7.13625 1.9453,1.80469 4.4768,2.70729 7.594,2.70729 1.9218,0 3.6205,-0.18739 5.0971,-0.56239 1.4765,-0.35157 2.8127,-0.79734 4.008,-1.33639 1.125,-0.49219 2.2272,-1.07764 3.3054,-1.75733 1.1015,-0.70312 1.9686,-1.24201 2.6015,-1.61701 l -0.9845,4.18284 h 6.5738 l 6.1518,-26.64736 c 0.1407,-0.63281 0.2582,-1.30147 0.352,-2.00459 0.1172,-0.72657 0.1759,-1.40629 0.1759,-2.0391 0,-3.30469 -1.2186,-5.71862 -3.6561,-7.24205 -2.4375,-1.52344 -6.0933,-2.28521 -10.9683,-2.28521 z m 45.6317,0.0356 c -3.4687,0 -6.702,0.69078 -9.702,2.07359 -3,1.35938 -5.5205,3.21115 -7.5595,5.55489 -2.1094,2.41407 -3.7383,5.21499 -4.8867,8.40249 -1.1485,3.1875 -1.7228,6.62044 -1.7228,10.30012 0,2.46094 0.3759,4.61765 1.1259,6.4692 0.75,1.85156 1.8156,3.38733 3.1984,4.60608 1.4297,1.26562 3.0941,2.19036 4.9925,2.77629 1.9218,0.58594 4.1251,0.87981 6.6095,0.87981 2.3437,0 4.6523,-0.32821 6.9258,-0.98447 2.2734,-0.67968 4.4301,-1.47695 6.4692,-2.39101 l 1.4054,-7.20641 h -0.3865 c -0.4452,0.30469 -1.1605,0.76153 -2.1449,1.3709 -0.9843,0.60937 -2.0499,1.18375 -3.1983,1.72282 -1.0313,0.49219 -2.2854,0.94902 -3.7619,1.3709 -1.4766,0.42187 -2.9536,0.63254 -4.4302,0.63254 -3.1406,0 -5.5667,-0.89039 -7.2777,-2.67164 -1.6874,-1.78125 -2.5301,-4.32495 -2.5301,-7.62963 0,-5.50781 1.4292,-10.18264 4.2886,-14.02638 2.8828,-3.84375 6.5974,-5.76651 11.1443,-5.76651 1.5,0 2.8361,0.17632 4.008,0.52789 1.1719,0.32812 2.2386,0.74946 3.1995,1.26509 0.961,0.49218 1.7926,1.02001 2.4957,1.58251 0.7031,0.5625 1.2886,1.05482 1.7573,1.4767 h 0.3876 l 1.4411,-7.1374 c -1.547,-0.86718 -3.3399,-1.61674 -5.379,-2.24956 -2.0156,-0.63281 -4.1723,-0.94881 -6.4692,-0.94881 z m -104.1317,14.66007 h 10.5819 c 2.6016,0 4.6285,0.0931 6.0816,0.28062 1.4766,0.1875 2.6841,0.5745 3.6216,1.16044 1.1485,0.70312 1.9445,1.46489 2.3899,2.28521 0.4452,0.79687 0.6682,1.85137 0.6682,3.16387 0,2.15624 -0.4801,4.1954 -1.4411,6.11728 -0.9609,1.89843 -2.3669,3.39869 -4.2185,4.50026 -1.4297,0.86719 -3.1295,1.47592 -5.0983,1.82748 -1.9452,0.32812 -4.4768,0.49223 -7.594,0.49223 h -9.5974 z m 64.6874,4.81654 -2.567,11.03847 c -1.9218,1.33594 -3.9964,2.48471 -6.223,3.44565 -2.2032,0.9375 -4.3709,1.40654 -6.5037,1.40654 -2.4141,0 -4.1949,-0.44576 -5.3433,-1.33639 -1.1485,-0.89062 -1.7228,-2.18022 -1.7228,-3.86772 0,-1.96874 0.4923,-3.6087 1.4767,-4.92119 0.9843,-1.33594 2.4258,-2.39044 4.3243,-3.16388 1.8281,-0.77343 4.1367,-1.36003 6.9257,-1.75847 2.8125,-0.42187 6.0237,-0.70238 9.6331,-0.84301 z M 640.91659,427.07916 a 2.3700839,2.3700839 0 0 0 -1.29384,0.32202 l -8.31163,4.70958 a 2.3700839,2.3700839 0 0 0 -1.13858,1.52041 l -1.37435,5.85276 h -69.18884 a 2.3700839,2.3700839 0 0 0 -2.29556,2.95915 l 8.35533,32.60709 a 2.3700839,2.3700839 0 0 0 1.96894,1.75847 l 51.81803,7.22365 v 2.7464 h -46.22864 a 2.3700839,2.3700839 0 0 0 -2.14605,1.28349 c -2.4555,1.18947 -4.17435,3.79372 -4.17479,6.79237 -6e-4,4.10931 3.22363,7.4816 7.1535,7.48243 3.79418,8.4e-4 6.9025,-3.14977 7.11555,-7.06495 a 1.8276343,1.9110805 0 0 0 0.0414,-0.41403 1.8276343,1.9110805 0 0 0 0,-10e-4 1.8276343,1.9110805 0 0 0 0,-0.001 1.8276343,1.9110805 0 0 0 0,-10e-4 1.8276343,1.9110805 0 0 0 -0.0414,-0.42093 c -0.0574,-1.04108 -0.32106,-2.02753 -0.7464,-2.91545 h 28.62435 c -0.592,1.08731 -0.93367,2.34023 -0.93386,3.67221 -6.8e-4,4.1093 3.22362,7.48275 7.1535,7.48357 3.79417,8.4e-4 6.90365,-3.14977 7.1167,-7.06494 a 1.8276343,1.9110805 0 0 0 0.0403,-0.41518 1.8276343,1.9110805 0 0 0 0,-10e-4 1.8276343,1.9110805 0 0 0 0,-0.001 1.8276343,1.9110805 0 0 0 -0.0403,-0.42208 c -0.0648,-1.17458 -0.39259,-2.279 -0.91892,-3.25128 h 0.35538 a 2.3700839,2.3700839 0 0 0 2.36916,-2.37032 v -7.39847 l 8.86712,-39.37415 a 2.3700839,2.3700839 0 0 0 0.0552,-0.55204 l 1.43185,-6.09888 7.40997,-4.19894 a 2.3700839,2.3700839 0 0 0 -1.04313,-4.44621 z m -78.25378,17.1454 h 7.45828 v 9.24319 h -5.08911 z m 10.61755,0 h 11.49045 v 9.24319 h -11.49045 z m 14.64972,0 h 12.1644 v 9.24319 h -12.1644 z m 15.32368,0 h 11.82742 v 9.24319 h -11.82742 z m 14.9867,0 h 9.44446 l -2.18516,9.3053 a 1.5800559,1.5800559 0 0 0 -0.44853,-0.0621 h -6.81077 z m -52.39882,12.40362 h 4.27945 v 10.14371 h -1.68027 z m 7.43872,0 h 11.49045 v 10.14371 h -11.49045 z m 14.64972,0 h 12.1644 v 10.14371 h -12.1644 z m 15.32368,0 h 11.82742 v 10.14371 h -11.82742 z m 14.9867,0 h 6.5313 l -2.38986,10.17706 a 1.5800559,1.5800559 0 0 0 -0.32778,-0.0334 h -3.81366 z m -48.98998,13.30413 h 0.87061 v 1.97354 a 1.5800559,1.5800559 0 0 0 0.0633,0.47268 l -0.31857,-0.0437 z m 4.02988,0 h 11.49045 v 4.47956 l -11.73427,-1.63541 a 1.5800559,1.5800559 0 0 0 0.24382,-0.87061 z m 14.64972,0 h 12.1644 v 6.61641 l -12.1644,-1.69637 z m 15.32368,0 h 11.82742 v 8.70496 l -11.84007,-1.65037 a 1.5800559,1.5800559 0 0 0 0.0127,-0.21046 z m 14.9867,0 h 3.40768 l -2.1288,9.06263 a 2.3700839,2.3700839 0 0 0 -0.0449,0.25532 l -1.23518,-0.17251 a 1.5800559,1.5800559 0 0 0 0.001,-0.0529 z m -45.52364,21.53641 a 2.3700839,2.3700839 0 0 0 0.51063,0.0494 h 2.28751 c 1.21479,0.56988 2.04723,1.83814 2.04715,3.33753 -5.1e-4,2.04393 -1.54732,3.65997 -3.502,3.65956 -1.95468,-3.4e-4 -3.49884,-1.61678 -3.49854,-3.66071 3.3e-4,-1.54386 0.88144,-2.84245 2.15525,-3.38583 z m 42.55873,0.0632 c 1.95468,1.7e-4 3.49981,1.61563 3.49969,3.65956 a 1.8276343,1.9110805 0 0 0 0,10e-4 c -5e-4,2.04393 -1.54616,3.65881 -3.50084,3.6584 -1.95468,-3.3e-4 -3.49885,-1.61563 -3.49855,-3.65955 3.4e-4,-2.04393 1.54502,-3.65977 3.4997,-3.65956 z m 578.20645,82.25151 v 34.94289 h 9.1224 v -34.94289 z m -6.1116,6.71762 c -5.1213,1.42737 -10.0314,3.90828 -14.3863,7.50657 -16.7104,13.80743 -19.0728,38.65539 -5.2651,55.36603 l 0.01,0.006 c 13.8077,16.71063 38.6555,19.07602 55.366,5.26852 16.7105,-13.8075 19.0738,-38.65655 5.2662,-55.36718 -5.1575,-6.24189 -11.8581,-10.47228 -19.0971,-12.61408 -0.183,0.15115 -0.3722,0.29517 -0.5589,0.44163 -0.3228,0.25377 -0.6622,0.4819 -1.0109,0.6981 -0.1931,0.1193 -0.3785,0.25225 -0.5613,0.38643 -0.018,0.0146 -0.058,0.0475 -0.1023,0.0713 0,0.0179 -0.1711,0.30509 -0.184,0.33583 0,0.0141 0.014,-0.011 0.02,-0.0161 -0.1369,0.32045 -0.2597,0.64738 -0.3807,0.97412 -0.1583,0.3592 -0.2643,0.73486 -0.3841,1.10753 -0.082,0.25804 -0.1559,0.51715 -0.2162,0.7809 -0.052,0.23709 -0.083,0.47651 -0.107,0.71765 -0.029,0.17372 -0.016,0.32414 0,0.49914 0,0.017 0.01,0.0422 0.01,0.0598 -4e-4,3.2e-4 -7e-4,8.4e-4 0,10e-4 -0.016,0.0127 -0.05,0.0414 -0.089,0.0621 0,0.0156 -0.1497,0.26646 -0.161,0.29327 0,0.0123 0.011,-0.009 0.017,-0.0138 -0.1194,0.2795 -0.2256,0.56377 -0.3312,0.84876 -0.1381,0.31331 -0.2303,0.64217 -0.3347,0.96721 -0.072,0.22507 -0.1371,0.45079 -0.1897,0.68085 -0.045,0.2068 -0.072,0.41532 -0.092,0.62565 -0.025,0.15151 -0.014,0.28324 0,0.43588 0,0.1156 0.037,0.24569 0.071,0.40598 5.6036,1.40185 10.8284,4.54042 14.8026,9.35015 9.8886,11.96777 8.2128,29.59132 -3.755,39.47996 -11.9677,9.88864 -29.5911,8.21161 -39.4799,-3.75616 -9.8886,-11.96777 -8.2128,-29.59132 3.755,-39.47996 3.0217,-2.49683 6.4131,-4.19901 9.9424,-5.22597 0.035,-0.0796 0.072,-0.15821 0.1081,-0.23807 0.041,-0.0926 0.07,-0.19219 0.1242,-0.27717 0.01,-0.0173 -0.01,0.0337 -0.015,0.0506 0.047,-0.1241 0.077,-0.25275 0.1277,-0.37493 0.01,-0.006 -10e-4,0.0329 0,0.0207 0.014,-0.0519 0.056,-0.22081 0.056,-0.22081 7e-4,-0.0582 0,-0.0979 0,-0.13686 v -10e-4 c 0,0 0.01,0.0496 -0.016,-0.0587 0,-0.0163 -0.022,-0.0551 -0.01,-0.0448 0.01,0.007 0.01,0.0102 0.012,0.0149 -0.082,-0.22152 -0.1667,-0.44168 -0.2381,-0.66704 -0.055,-0.17338 -0.1175,-0.34448 -0.1737,-0.51754 -0.08,-0.22441 -0.1641,-0.44864 -0.2196,-0.68085 0.053,0.0429 0.01,0.007 -0.063,-0.16331 -0.011,-0.0283 -0.019,-0.0602 -0.031,-0.0886 -0.037,-0.0821 -0.044,-0.0911 -0.032,-0.0759 0.01,0.008 0.016,0.0189 0.017,0.0218 0,0.0119 -0.01,-0.0136 -0.015,-0.0299 v 10e-4 c 3e-4,4e-4 0,-0.002 0,-10e-4 -0.03,-0.0636 -0.1231,-0.17124 -0.1507,-0.23347 -0.049,-0.083 -0.2367,-0.30085 -0.2334,-0.30362 -0.034,-0.0338 -0.069,-0.0657 -0.1035,-0.0989 0,-0.006 0.01,-0.0114 0.01,-0.0172 0.047,-0.10607 0.08,-0.21999 0.1426,-0.31742 0.01,-0.0198 -0.011,0.0394 -0.017,0.0587 0.053,-0.14228 0.088,-0.2912 0.146,-0.43128 0.01,-0.006 2e-4,0.0394 0,0.0253 0.016,-0.0596 0.064,-0.25417 0.064,-0.25417 7e-4,-0.0667 0,-0.11172 0,-0.15641 v -0.001 c 0,0 0.012,0.0564 -0.018,-0.0679 0,-0.0187 -0.024,-0.0624 -0.011,-0.0506 0.01,0.007 0.01,0.0118 0.014,0.0172 -0.094,-0.25397 -0.1918,-0.50757 -0.2737,-0.76595 -0.063,-0.19878 -0.1344,-0.39504 -0.1989,-0.59345 -0.092,-0.25727 -0.1883,-0.51352 -0.2519,-0.77975 0.061,0.0492 0.011,0.007 -0.071,-0.18861 -0.013,-0.0324 -0.022,-0.0675 -0.036,-0.10006 -0.045,-0.099 -0.056,-0.11517 -0.039,-0.092 0.01,0.009 0.02,0.026 0.024,0.0299 0,0.0137 -0.01,-0.0157 -0.018,-0.0345 l -0.01,0.002 c 5e-4,6.6e-4 0,-0.003 0,-0.002 -0.034,-0.0729 -0.1419,-0.19547 -0.1736,-0.26682 -0.057,-0.0952 -0.2707,-0.34529 -0.2669,-0.34847 -0.1799,-0.18014 -0.3665,-0.35112 -0.5485,-0.52904 -0.1797,-0.18912 -0.3531,-0.38321 -0.5245,-0.57964 -0.081,-0.0819 -0.16,-0.16433 -0.2461,-0.24036 -0.132,-0.10631 -0.235,-0.16807 -0.3945,-0.27487 -0.1064,-0.0707 -0.2069,-0.14525 -0.3231,-0.20012 -0.039,-0.0116 -0.1672,-0.0625 -0.2347,-0.0932 0.062,0.0229 0.1248,0.0403 0.1875,0.0598 0.5897,0.11626 -0.036,-10e-4 0.3473,0.0471 0.023,7.4e-4 0.047,0.002 0.07,0.001 0.7047,-0.005 1.087,-0.12081 1.2467,-0.31282 -0.096,-0.11594 -0.1995,-0.22613 -0.3014,-0.33697 z m 1.1697,3.07416 v -0.002 c 0,10e-4 -0.01,-0.008 -0.01,-0.008 0,0.003 0,0.005 0.01,0.0104 z m 1.0305,4.35536 v -0.002 c 0,0 -0.01,-0.007 -0.01,-0.007 0,0.003 0,0.004 0,0.009 z m -3.4779,-6.78088 c 0.016,0.006 0.032,0.0127 0.048,0.0184 0.024,0.009 0.096,0.03 0.071,0.0219 -0.098,-0.034 -0.096,-0.0327 -0.1196,-0.0403 z m 20.9269,1.11903 c -0.021,0.0172 -0.044,0.0361 -0.053,0.0437 -0.021,0.0172 -0.078,0.0773 -0.057,0.0598 v 10e-4 c 0.092,-0.0766 0.045,-0.0618 0.088,-0.0736 0.015,-0.0127 0.016,-0.0259 0.022,-0.031 z m -17.5928,3.98733 c 0.01,0.0297 0.011,0.0598 0.017,0.0909 v 0 c 0,0.0141 8e-4,-0.0242 -0.01,-0.0357 -0.01,-0.0413 -0.011,-0.0407 -0.013,-0.0552 z m -0.01,0.14146 c -0.01,0.0195 -0.012,0.0406 -0.01,0.0529 -8e-4,6.4e-4 0.01,0.008 0.01,0.008 0,0 2e-4,-0.0404 0,-0.061 z m 16.2702,0.39333 c -0.019,0.015 -0.038,0.0325 -0.047,0.0391 -0.019,0.015 -0.069,0.067 -0.051,0.0518 0.08,-0.0668 0.039,-0.053 0.077,-0.0633 0.013,-0.0111 0.015,-0.0232 0.021,-0.0276 z m -15.3466,3.47784 c 0.01,0.0259 0.01,0.0522 0.015,0.0794 v 0 c 0,0.0123 8e-4,-0.021 -0.01,-0.031 -0.01,-0.0361 -0.01,-0.0356 -0.01,-0.0483 z m 0,0.12306 c -0.01,0.0172 -0.011,0.0365 -0.01,0.0471 -7e-4,5.7e-4 0.01,0.007 0.01,0.007 0,0 2e-4,-0.036 0,-0.054 z M 699.97438,732.62335 c -6.70312,0 -12.17522,1.66322 -16.4174,4.99135 -4.21875,3.30468 -6.3289,7.45399 -6.3289,12.44617 0,2.95312 1.00794,5.42583 3.02357,7.41802 2.01562,1.99218 4.86311,3.39818 8.54279,4.21849 1.89844,0.44532 3.89104,0.86665 5.97697,1.26509 2.10937,0.375 3.92565,0.77421 5.44908,1.19609 1.82813,0.51562 3.21085,1.31174 4.14834,2.38986 0.96094,1.07812 1.44106,2.4265 1.44106,4.04369 0,3.07031 -1.33501,5.60064 -4.00688,7.59283 -2.64844,1.96875 -6.46952,2.9534 -11.46171,2.9534 -3.04687,0 -6.21037,-0.56216 -9.49161,-1.68716 -3.25781,-1.14844 -6.01218,-2.78954 -8.26218,-4.92235 h -0.49223 l -1.68717,7.98041 c 2.95312,1.47657 5.96472,2.57877 9.03503,3.30533 3.07031,0.70313 6.3048,1.05463 9.70323,1.05463 3.9375,0 7.34715,-0.49234 10.22997,-1.47671 2.90625,-0.98438 5.43773,-2.34381 7.59398,-4.07818 2.01562,-1.61719 3.58573,-3.56207 4.71073,-5.83551 1.125,-2.27343 1.68831,-4.55875 1.68831,-6.85563 0,-2.74219 -0.86711,-5.01644 -2.60148,-6.82113 -1.71094,-1.80468 -4.23135,-3.16298 -7.55948,-4.07703 -1.68749,-0.44532 -3.77321,-0.91437 -6.25758,-1.40655 -2.48438,-0.51563 -4.47582,-0.94918 -5.97582,-1.30074 -2.34375,-0.58594 -3.97264,-1.46527 -4.8867,-2.63714 -0.91406,-1.17188 -1.37204,-2.53131 -1.37204,-4.07818 0,-2.88281 1.26631,-5.26126 3.79756,-7.13625 2.55469,-1.875 5.96435,-2.8131 10.22997,-2.8131 3.39843,0 6.63292,0.5511 9.70323,1.65266 3.09375,1.10156 5.47334,2.41444 7.1374,3.93788 h 0.49108 l 1.58252,-7.48817 c -2.15625,-1.03126 -4.7343,-1.92279 -7.7343,-2.67279 -2.97656,-0.77344 -6.2931,-1.15928 -9.94934,-1.15928 z m 47.95375,12.93725 c -2.55468,0 -4.88771,0.49233 -6.99709,1.47671 -2.10937,0.96093 -4.25385,2.20282 -6.43355,3.72626 l 0.94997,-4.11384 h -6.60951 l -12.41052,53.75476 h 6.60951 l 3.79642,-16.5232 c 1.45312,0.91406 3.05872,1.60484 4.81653,2.07359 1.78125,0.49219 3.72729,0.73835 5.83666,0.73835 3.02343,0 5.87093,-0.70299 8.5428,-2.10924 2.67188,-1.42969 5.01598,-3.37458 7.03159,-5.83551 1.99219,-2.39062 3.58558,-5.29689 4.78089,-8.71876 1.21875,-3.42187 1.82748,-7.07885 1.82748,-10.96947 0,-4.26562 -1.00679,-7.58216 -3.02242,-9.94935 -1.99218,-2.36719 -4.89845,-3.5503 -8.71876,-3.5503 z m 122.27311,0 c -6.70312,0 -12.32826,2.57805 -16.87513,7.7343 -4.54687,5.1328 -6.81997,11.29683 -6.81997,18.49214 0,4.92187 1.54683,8.65975 4.64057,11.21443 3.09375,2.55469 7.35945,3.83207 12.79695,3.83207 1.68749,0 3.09349,-0.0931 4.21849,-0.28062 1.125,-0.1875 2.41345,-0.45694 3.86657,-0.8085 1.45313,-0.35157 2.64845,-0.70307 3.58595,-1.05463 0.9375,-0.35156 1.99315,-0.73855 3.16502,-1.16043 l 1.44106,-7.1374 h -0.38643 c -1.85156,1.26562 -4.1491,2.40333 -6.89128,3.41114 -2.71875,1.00781 -5.36664,1.51121 -7.94476,1.51121 -3.70312,0 -6.56283,-0.93695 -8.57845,-2.81195 -2.01563,-1.89844 -3.02356,-4.50091 -3.02356,-7.8056 0,-0.5625 0.0233,-1.17123 0.0702,-1.82747 0.0703,-0.65626 0.17565,-1.32491 0.31627,-2.00459 h 28.93373 c 0.44531,-2.01563 0.76247,-3.78419 0.94997,-5.30763 0.21094,-1.52344 0.31627,-2.6367 0.31627,-3.33983 0,-4.0078 -1.18427,-7.11368 -3.55145,-9.3168 -2.36718,-2.22657 -5.77684,-3.33984 -10.22997,-3.33984 z m -83.00361,0.14031 c -2.36718,0 -4.83989,0.22289 -7.41802,0.6682 -2.57811,0.44531 -4.53522,0.84337 -5.87116,1.19493 l -1.30074,6.60952 h 0.35078 c 1.59375,-0.63282 3.6684,-1.26597 6.22308,-1.89879 2.55469,-0.65625 4.82779,-0.98332 6.81998,-0.98332 1.3125,0 2.50783,0.0809 3.58595,0.24497 1.10156,0.14062 2.06294,0.42228 2.88325,0.84416 0.82032,0.42187 1.45347,0.98404 1.89879,1.68717 0.44531,0.70312 0.66704,1.61794 0.66704,2.74294 0,0.51563 -0.0465,1.01902 -0.14031,1.51121 -0.0937,0.46875 -0.2113,1.03092 -0.35192,1.68717 -4.78125,0.14062 -9.04695,0.51655 -12.79695,1.12592 -3.72655,0.58594 -6.91333,1.54617 -9.56177,2.88211 -2.6953,1.35937 -4.73446,3.11802 -6.11728,5.27426 -1.35937,2.13282 -2.03909,4.75742 -2.03909,7.87461 0,2.92968 0.97244,5.30812 2.91776,7.13625 1.94531,1.80468 4.47679,2.70729 7.59398,2.70729 1.92188,0 3.6206,-0.18739 5.09715,-0.56239 1.47656,-0.35156 2.81272,-0.79734 4.00803,-1.3364 1.125,-0.49219 2.22721,-1.07763 3.30534,-1.75732 1.10156,-0.70312 1.96867,-1.24201 2.60148,-1.61701 l -0.98447,4.18284 h 6.57386 l 6.15293,-26.64737 c 0.14063,-0.63281 0.25703,-1.30147 0.35077,-2.00459 0.11719,-0.72656 0.17597,-1.40628 0.17597,-2.03909 0,-3.30468 -1.21861,-5.71862 -3.65611,-7.24206 -2.4375,-1.52344 -6.09332,-2.28521 -10.96832,-2.28521 z m 45.6329,0.0357 c -3.46875,0 -6.70323,0.69079 -9.70323,2.07359 -3,1.35938 -5.52042,3.21115 -7.55948,5.55489 -2.10938,2.41406 -3.73826,5.21499 -4.88669,8.40249 -1.14844,3.18749 -1.72282,6.62159 -1.72282,10.30127 0,2.46093 0.37593,4.61649 1.12593,6.46805 0.74999,1.85156 1.81556,3.38732 3.19837,4.60607 1.42968,1.26562 3.09406,2.19036 4.9925,2.7763 1.92187,0.58594 4.12514,0.87981 6.60951,0.87981 2.34375,0 4.65236,-0.32822 6.92579,-0.98447 2.27343,-0.67968 4.43014,-1.47696 6.4692,-2.39102 l 1.4054,-7.2064 h -0.38643 c -0.44531,0.30469 -1.16052,0.76152 -2.1449,1.3709 -0.98437,0.60937 -2.04994,1.18376 -3.19837,1.72282 -1.03126,0.49219 -2.28536,0.94902 -3.76192,1.37089 -1.47656,0.42188 -2.95355,0.63255 -4.43011,0.63255 -3.14062,0 -5.56562,-0.8904 -7.27656,-2.67164 -1.68749,-1.78125 -2.53132,-4.32495 -2.53132,-7.62963 0,-5.50781 1.42928,-10.18264 4.28865,-14.02639 2.88281,-3.84375 6.59741,-5.7665 11.14428,-5.7665 1.5,0 2.83616,0.17633 4.00803,0.52789 1.17187,0.32812 2.23858,0.74946 3.19952,1.26509 0.96094,0.49218 1.79256,1.02001 2.49568,1.58251 0.70312,0.5625 1.28972,1.05483 1.75847,1.4767 h 0.38643 l 1.44105,-7.1374 c -1.54687,-0.86719 -3.33987,-1.61674 -5.37893,-2.24956 -2.01562,-0.6328 -4.17118,-0.94881 -6.46805,-0.94881 z m 35.99982,5.027 c 3.02343,0 5.21449,0.703 6.57386,2.10925 1.38281,1.40625 2.07474,3.36335 2.07474,5.87116 0,0.5625 -0.0244,1.07811 -0.0713,1.54685 -0.0469,0.46876 -0.12893,1.04314 -0.24612,1.72283 h -22.42887 c 0.91406,-3.375 2.65934,-6.09388 5.23747,-8.15638 2.57812,-2.06249 5.53209,-3.09371 8.86022,-3.09371 z m -123.74982,0.84416 c 2.67188,0 4.61677,0.76177 5.83551,2.28521 1.21876,1.5 1.82748,3.64449 1.82748,6.43355 0,2.76562 -0.32706,5.35473 -0.98332,7.76879 -0.65624,2.41406 -1.65312,4.60626 -2.98906,6.57501 -1.26562,1.875 -2.87123,3.3974 -4.81653,4.56927 -1.92188,1.17187 -4.08965,1.75847 -6.50371,1.75847 -1.96875,0 -3.6442,-0.1996 -5.027,-0.59804 -1.38281,-0.39844 -2.83652,-1.00716 -4.35996,-1.82748 l 5.13281,-22.25405 c 1.80469,-1.21876 3.75072,-2.30875 5.83666,-3.26968 2.08594,-0.96094 4.10181,-1.44105 6.04712,-1.44105 z m 48.30454,13.60545 -2.56698,11.03847 c -1.92188,1.33594 -3.99538,2.48471 -6.22194,3.44564 -2.20312,0.9375 -4.37204,1.40655 -6.50485,1.40655 -2.41406,0 -4.19484,-0.44577 -5.34328,-1.33639 -1.14843,-0.89063 -1.72282,-2.18022 -1.72282,-3.86772 0,-1.96875 0.49233,-3.6087 1.4767,-4.9212 0.98438,-1.33593 2.42587,-2.39043 4.32431,-3.16387 1.82812,-0.77344 4.13672,-1.36004 6.92578,-1.75847 2.8125,-0.42187 6.02371,-0.70238 9.63308,-0.84301 z m 343.69583,-34.29199 25.8848,25.88601 h -51.7697 v 19.41336 h 51.7697 l -25.8848,25.88486 h 24.2678 l 35.5916,-35.59154 -35.5916,-35.59269 z m 56.9025,-250.38978 v 8.88897 h 8.8878 v -8.88897 z" /></g><g
       id="CtrlKeyGrp"
       style="display:inline"
       transform="translate(3631.1831,-2802.3683)"><path
         d="m 714.07551,405.77047 c -16.66098,-10e-4 -30.16891,11.63508 -30.16891,25.98606 v 9.99996 c 0,-14.35099 13.50793,-25.98592 30.16891,-25.98492 h 145.19422 c 16.65998,0 30.16661,11.63393 30.16661,25.98492 v -9.99996 c 0,-14.35098 -13.50663,-25.98606 -30.16661,-25.98606 z m -30.16891,92.2238 v 9.99995 c 0,14.35199 13.50793,25.98592 30.16891,25.98492 h 145.19422 c 16.65998,0 30.16661,-11.63393 30.16661,-25.98492 v -9.99995 c 0,14.35099 -13.50663,25.98492 -30.16661,25.98492 H 714.07551 c -16.66098,10e-4 -30.16891,-11.63293 -30.16891,-25.98492 z"
         style="stroke:white;stroke-width:1"
         id="path81" /><path
         style="display:inline;fill:black;stroke:white;stroke-width:0.911;stroke-dasharray:none;stroke-opacity:1"
         d="m 714.07503,405.7712 c -16.66112,-7.7e-4 -30.1682,11.63349 -30.1682,25.98524 v 66.23776 c 0,14.35175 13.50708,25.98601 30.1682,25.98524 h 145.19491 c 16.66027,-2.8e-4 30.16601,-11.63423 30.16601,-25.98524 v -66.23776 c 0,-14.35102 -13.50574,-25.98496 -30.16601,-25.98524 z"
         id="path1573" /><path
         d="m 833.44122,440.15442 v 48.59781 h 5.87231 v -48.59781 z m -76.61261,1.25014 c -3.41473,0 -6.52776,0.53096 -9.33866,1.59286 -2.79008,1.06189 -5.17315,2.60249 -7.1512,4.62218 -2.0405,2.08215 -3.60271,4.63236 -4.68542,7.65148 -1.08272,3.01912 -1.62392,6.44481 -1.62392,10.27597 0,4.03937 0.56165,7.58898 1.68602,10.64975 1.12436,3.03993 2.68656,5.54924 4.68543,7.52727 2.0405,2.01969 4.43496,3.50797 7.1834,4.46577 2.76926,0.93696 5.84021,1.40539 9.2133,1.40539 1.79065,0 3.42561,-0.14553 4.90394,-0.43703 1.49914,-0.27068 2.88398,-0.60381 4.15409,-0.99942 1.49915,-0.4789 2.70661,-0.9371 3.62275,-1.37434 0.93697,-0.43726 1.97729,-0.90568 3.12247,-1.4054 v -7.24551 h -0.43703 c -2.26954,2.04051 -4.70493,3.57087 -7.30761,4.59112 -2.60268,1.02026 -5.39281,1.53076 -8.37029,1.53076 -2.16543,0 -4.22676,-0.36497 -6.18398,-1.09373 -1.9364,-0.74957 -3.6339,-1.8945 -5.09141,-3.43529 -1.39503,-1.47832 -2.53996,-3.39412 -3.43529,-5.74695 -0.8745,-2.35282 -1.31224,-5.16341 -1.31224,-8.43239 0,-3.12322 0.39567,-5.87243 1.18688,-8.24608 0.81204,-2.39447 1.93651,-4.37165 3.37319,-5.93326 1.47833,-1.60326 3.15422,-2.78003 5.02815,-3.5296 1.89476,-0.77039 4.01862,-1.15583 6.37145,-1.15583 2.87336,0 5.57026,0.49005 8.08967,1.46865 2.51939,0.97862 5.05938,2.53967 7.62043,4.68428 h 0.46808 v -7.33981 c -3.03994,-1.51998 -5.80845,-2.58191 -8.30703,-3.18573 -2.47776,-0.60382 -4.96659,-0.90511 -7.46517,-0.90511 z m 24.17469,2.43587 v 10.02525 h -3.96663 v 4.935 h 3.96663 v 18.55195 c 0,4.22676 0.92548,7.29771 2.77859,9.21329 1.85312,1.91558 4.56025,2.87405 8.12072,2.87405 1.02026,0 2.17656,-0.0944 3.4675,-0.28177 1.31175,-0.18739 2.51921,-0.42615 3.62275,-0.71765 v -5.27887 h -0.31282 c -0.45808,0.1874 -1.20733,0.4273 -2.24841,0.7188 -1.04107,0.27068 -2.04047,0.40598 -2.99826,0.40598 -1.6449,0 -2.87398,-0.18759 -3.68601,-0.56239 -0.79122,-0.3956 -1.41541,-1.00957 -1.87348,-1.84243 -0.49972,-0.89532 -0.79078,-1.85379 -0.87406,-2.87405 -0.0833,-1.04107 -0.12536,-2.47706 -0.12536,-4.30935 v -15.89756 h 12.1184 v -4.935 h -12.1184 v -10.02525 z m 25.07866,10.02525 v 34.88655 h 5.87231 v -24.76699 c 1.56161,-1.27011 3.18519,-2.30135 4.87174,-3.09257 1.68654,-0.81203 3.43519,-1.21793 5.24667,-1.21793 1.12435,0 2.09306,0.0523 2.9051,0.15641 0.83286,0.0833 1.68672,0.22881 2.56123,0.43703 h 0.31167 v -6.02757 c -0.91615,-0.14573 -1.60287,-0.23895 -2.06094,-0.28062 -0.45808,-0.0625 -1.19711,-0.0943 -2.21736,-0.0943 -1.85311,0 -3.67453,0.39567 -5.46518,1.18689 -1.76983,0.77039 -3.82092,2.09269 -6.15293,3.96662 v -5.15351 z"
         style="fill:#ccc;stroke-width:0"
         id="path89" /></g><g
       id="AltKeyGrp"
       style="display:inline"
       transform="translate(3631.1831,-2802.3683)"><path
         d="m 934.69201,405.77047 c -16.66098,-10e-4 -30.16776,11.63508 -30.16776,25.98606 v 9.99996 c 0,-14.35099 13.50678,-25.98592 30.16776,-25.98492 h 145.19769 c 16.66,0 30.1608,11.63393 30.1608,25.98492 v -9.99996 c 0,-14.35098 -13.5008,-25.98606 -30.1608,-25.98606 z m -30.16776,92.2238 v 9.99995 c 0,14.35199 13.50678,25.98592 30.16776,25.98492 h 145.19769 c 16.66,0 30.1608,-11.63393 30.1608,-25.98492 v -9.99995 c 0,14.35099 -13.5008,25.98492 -30.1608,25.98492 H 934.69201 c -16.66098,10e-4 -30.16776,-11.63293 -30.16776,-25.98492 z"
         style="fill:black;stroke:white;stroke-width:1"
         id="path80" /><path
         style="display:inline;fill:black;stroke:white;stroke-width:1;stroke-dasharray:none;stroke-opacity:1"
         d="m 934.69234,405.7712 c -16.66112,-7.7e-4 -30.1682,11.63349 -30.1682,25.98524 v 66.23776 c 0,14.35175 13.50708,25.98601 30.1682,25.98524 h 145.19496 c 16.6602,-2.8e-4 30.166,-11.63423 30.166,-25.98524 v -66.23776 c 0,-14.35102 -13.5058,-25.98496 -30.166,-25.98524 z"
         id="path1583" /><path
         d="m 1013.8636,440.23263 v 48.5978 h 5.8711 v -48.5978 z m -31.82623,2.09314 -16.92803,46.50466 h 6.27829 l 4.56007,-12.96141 h 20.11261 l 4.56009,12.96141 h 6.5899 l -16.928,-46.50466 z m 49.44083,1.59287 v 10.02525 h -3.9666 v 4.93499 h 3.9666 v 18.55195 c 0,4.22678 0.9266,7.29772 2.7797,9.2133 1.8531,1.91558 4.5604,2.8729 8.1207,2.8729 1.0202,0 2.1755,-0.0932 3.4664,-0.28062 1.3118,-0.1874 2.5191,-0.4273 3.6227,-0.7188 v -5.27772 h -0.3116 c -0.4581,0.1874 -1.2086,0.4273 -2.2496,0.7188 -1.0411,0.27069 -2.0404,0.40598 -2.9982,0.40598 -1.6449,0 -2.8729,-0.18761 -3.6849,-0.56239 -0.7912,-0.39561 -1.4165,-1.00957 -1.8746,-1.84243 -0.4997,-0.89532 -0.7908,-1.85379 -0.8741,-2.87405 -0.083,-1.04108 -0.1254,-2.47707 -0.1254,-4.30935 v -15.89757 h 12.1184 v -4.93499 h -12.1184 v -10.02525 z m -45.4742,3.81021 8.15177,22.83025 h -16.33459 z"
         style="fill:#ccc;stroke-width:0"
         id="path88" /></g><g
       id="DelKeyGrp"
       transform="translate(3633.3339,-2801.2929)"
       style="display:inline"><path
         d="m 710.68269,555.95368 c -16.16298,0 -29.2799,11.92708 -29.2799,26.62206 v 9.99995 c 0,-14.69498 13.11692,-26.62206 29.2799,-26.62206 h 371.47711 c 16.16,0 29.2799,11.92708 29.2799,26.62206 v -9.99995 c 0,-14.69498 -13.1199,-26.62206 -29.2799,-26.62206 z m -29.2799,92.8598 v 9.99995 c 0,14.69499 13.11692,26.62207 29.2799,26.62207 h 371.47711 c 16.16,0 29.2799,-11.92708 29.2799,-26.62207 v -9.99995 c 0,14.69499 -13.1199,26.62207 -29.2799,26.62207 H 710.68269 c -16.16298,0 -29.2799,-11.92708 -29.2799,-26.62207 z"
         style="fill:#d40000;stroke:white;stroke-width:1"
         id="path79" /><path
         id="path1601"
         style="display:inline;fill:#d40000;stroke:white;stroke-width:1;stroke-dasharray:none;stroke-opacity:1"
         d="m 710.68301,555.95394 c -16.16254,0 -29.28025,11.92706 -29.28025,26.62159 v 66.23777 c 0,14.69452 13.11771,26.62159 29.28025,26.62159 h 371.47839 c 16.1625,0 29.2803,-11.92707 29.2803,-26.62159 v -66.23777 c 0,-14.69453 -13.1178,-26.62159 -29.2803,-26.62159 z" /><path
         d="m 789.08138,590.5159 v 47.72144 h 5.76535 V 590.5159 Z m 282.30682,1.22714 c -4.9684,0 -9.0686,1.22677 -12.299,3.68025 -3.2304,2.43306 -4.8453,5.56128 -4.8453,9.38466 0,3.33267 0.9709,6.04214 2.9132,8.12762 1.9628,2.06503 4.9683,3.52653 9.0166,4.38526 2.0037,0.40891 3.8957,0.74627 5.6745,1.01207 1.7992,0.26579 3.4648,0.60315 4.9983,1.01207 2.0241,0.53159 3.5269,1.27825 4.5083,2.23921 1.0019,0.96094 1.5031,2.45312 1.5031,4.47726 0,2.35128 -1.0533,4.2327 -3.1592,5.64344 -2.0855,1.41077 -5.0085,2.11615 -8.7705,2.11615 -2.658,0 -5.5007,-0.52137 -8.5267,-1.56411 -3.026,-1.04274 -5.6942,-2.52545 -8.0046,-4.44736 h -0.429 v 7.60548 c 2.7193,1.20631 5.3875,2.11693 8.0046,2.73029 2.6375,0.61338 5.6018,0.92007 8.8936,0.92007 3.0668,0 5.6843,-0.36803 7.8516,-1.10408 2.1877,-0.73605 4.0997,-1.75873 5.7354,-3.06726 1.4925,-1.20631 2.6474,-2.67841 3.4652,-4.41631 0.8383,-1.7379 1.257,-3.49664 1.257,-5.27542 0,-3.27134 -0.8587,-5.81686 -2.5761,-7.63654 -1.7175,-1.81967 -4.2725,-3.17857 -7.6665,-4.07818 -1.6766,-0.42937 -3.7219,-0.84928 -6.1345,-1.25819 -2.4126,-0.40892 -4.2728,-0.75573 -5.5813,-1.04197 -2.474,-0.57249 -4.2021,-1.40054 -5.1835,-2.48418 -0.9814,-1.08362 -1.4721,-2.57694 -1.4721,-4.47841 0,-2.12637 0.9814,-3.8639 2.9442,-5.21331 1.9832,-1.34943 4.6007,-2.02415 7.8516,-2.02415 2.9647,0 5.8582,0.4907 8.6797,1.47211 2.8419,0.96095 5.1315,2.1771 6.8694,3.6492 h 0.429 v -7.1765 c -2.065,-0.89961 -4.436,-1.65573 -7.1144,-2.26911 -2.6784,-0.61337 -5.6226,-0.92006 -8.8326,-0.92006 z m -367.71985,0.82805 v 45.66625 h 11.53186 c 4.19138,0 7.56498,-0.28662 10.12071,-0.85911 2.57616,-0.57248 4.90701,-1.50316 6.99249,-2.79124 3.00552,-1.86058 5.40831,-4.4769 7.20755,-7.85045 1.81968,-3.37357 2.72914,-7.13639 2.72914,-11.28689 0,-4.43675 -0.86933,-8.27037 -2.60723,-11.50081 -1.7379,-3.23044 -4.16075,-5.81608 -7.26851,-7.75844 -1.81968,-1.12452 -4.04791,-2.00447 -6.68542,-2.63829 -2.61707,-0.65426 -6.15461,-0.98102 -10.61179,-0.98102 z m 101.11508,0 v 4.66128 h 5.98042 v 36.34255 h -5.98042 v 4.66242 h 18.03326 v -4.66242 h -5.98042 v -36.34255 h 5.98042 v -4.66128 z m 146.99639,0 v 45.66625 h 30.08611 v -5.39848 h -24.01368 v -16.95908 h 24.01368 v -5.39848 h -24.01368 v -12.51288 h 24.01368 v -5.39733 z m 79.12558,1.56411 v 9.84469 h -3.8954 v 4.84529 h 3.8954 v 18.21728 c 0,4.15049 0.9094,7.16666 2.7291,9.04768 1.8197,1.88102 4.4773,2.82115 7.9735,2.82115 1.0019,0 2.1366,-0.092 3.4042,-0.27602 1.2881,-0.18401 2.4747,-0.41876 3.5584,-0.705 v -5.18341 h -0.3071 c -0.4498,0.18401 -1.1858,0.4199 -2.2081,0.70615 -1.0223,0.26579 -2.0037,0.39792 -2.9442,0.39792 -1.6152,0 -2.8219,-0.18401 -3.6193,-0.55203 -0.777,-0.38848 -1.3904,-0.99125 -1.8402,-1.80908 -0.4907,-0.87917 -0.7761,-1.8193 -0.8579,-2.82115 -0.082,-1.02229 -0.1231,-2.43307 -0.1231,-4.23229 v -15.6112 h 11.8999 v -4.84529 h -11.8999 v -9.84469 z m -321.16462,3.64921 h 5.70439 c 2.82153,0 5.24438,0.20522 7.26851,0.61414 2.02414,0.38848 3.93622,1.09386 5.73546,2.11615 2.47394,1.41076 4.33414,3.3429 5.58134,5.79641 1.24718,2.45348 1.87118,5.46851 1.87118,9.04653 0,3.55758 -0.57211,6.523 -1.71707,8.89472 -1.12453,2.37172 -2.82193,4.28266 -5.09141,5.7343 -1.81968,1.16542 -3.82377,1.96281 -6.01147,2.39217 -2.16726,0.42936 -4.71278,0.64405 -7.63654,0.64405 h -5.70439 z m 56.09402,5.24437 c -4.98878,0 -9.01703,1.64668 -12.08389,4.93844 -3.04643,3.29179 -4.56927,7.73878 -4.56927,13.34094 0,5.66349 1.59478,10.03854 4.78433,13.12587 3.18955,3.06686 7.62595,4.60032 13.30988,4.60032 2.2286,0 4.35536,-0.27602 6.3795,-0.82806 2.02414,-0.55204 4.00701,-1.23737 5.94937,-2.05519 v -6.28634 h -0.30708 c -1.00183,0.8996 -2.68863,1.81968 -5.06035,2.76019 -2.35128,0.92006 -4.69157,1.3801 -7.02239,1.3801 -1.75835,0 -3.37434,-0.24536 -4.84644,-0.73606 -1.45165,-0.4907 -2.70909,-1.22675 -3.77226,-2.20815 -1.10408,-1.00185 -1.97227,-2.28048 -2.60609,-3.83437 -0.63382,-1.57433 -0.95111,-3.41447 -0.95111,-5.52039 h 25.24081 v -3.12821 c 0,-4.96835 -1.25742,-8.80196 -3.77226,-11.50081 -2.4944,-2.69885 -6.05199,-4.04828 -10.67275,-4.04828 z m 84.12379,0 c -2.02414,0 -3.9964,0.41992 -5.91831,1.25818 -1.92191,0.83828 -3.78327,2.0037 -5.58249,3.49625 v -3.80332 h -5.76536 v 34.25745 h 5.76536 v -25.57779 c 1.57431,-1.2063 3.22099,-2.19832 4.93844,-2.97526 1.71745,-0.77694 3.36297,-1.16503 4.9373,-1.16503 1.53344,0 2.78026,0.21468 3.74121,0.64405 0.96096,0.40891 1.69701,1.04235 2.20815,1.90108 0.4907,0.77695 0.82806,1.86096 1.01208,3.25128 0.18401,1.36987 0.27601,2.84197 0.27601,4.41631 v 19.50536 h 5.76651 v -22.23566 c 0,-4.19138 -0.97195,-7.40102 -2.91431,-9.62962 -1.94234,-2.2286 -4.76389,-3.34328 -8.46459,-3.34328 z m 35.26952,0 c -2.02414,0 -3.94567,0.4093 -5.76535,1.22713 -1.81968,0.81783 -3.40501,1.97265 -4.75444,3.4652 -1.3903,1.53342 -2.51446,3.43491 -3.37318,5.70439 -0.83828,2.24905 -1.25704,4.84645 -1.25704,7.79065 0,5.52037 1.20555,9.85415 3.61815,13.00281 2.43306,3.12821 5.68396,4.69233 9.75269,4.69233 2.04457,0 3.94606,-0.36803 5.7044,-1.10408 1.75833,-0.75649 3.52768,-1.9007 5.30647,-3.43414 v 16.49906 h 5.76535 v -46.89224 h -5.39733 l -0.36802,1.47211 c -1.47211,-0.79739 -2.92415,-1.40016 -4.35536,-1.80908 -1.41076,-0.40891 -3.03621,-0.61414 -4.87634,-0.61414 z m 123.07359,0 c -2.0242,0 -3.9964,0.41992 -5.9183,1.25818 -1.9219,0.83828 -3.78326,2.0037 -5.58253,3.49625 v -3.80332 h -5.76535 v 34.25745 h 5.76535 v -25.57779 c 1.57433,-1.2063 3.22103,-2.19832 4.93843,-2.97526 1.7175,-0.77694 3.363,-1.16503 4.9373,-1.16503 1.5334,0 2.7802,0.21468 3.7412,0.64405 0.961,0.40891 1.697,1.04235 2.2082,1.90108 0.4907,0.77695 0.8281,1.86096 1.0121,3.25128 0.184,1.36987 0.276,2.84197 0.276,4.41631 v 19.50536 h 5.7665 v -22.23566 c 0,-4.19138 -0.972,-7.40102 -2.9143,-9.62962 -1.9424,-2.2286 -4.7639,-3.34328 -8.4646,-3.34328 z m -96.97481,0.95111 v 22.23451 c 0,4.25274 1.00261,7.48358 3.00631,9.69173 2.00369,2.1877 4.80402,3.28118 8.40249,3.28118 2.1468,0 4.10962,-0.40816 5.88841,-1.22599 1.77878,-0.81783 3.64013,-1.99387 5.58249,-3.52729 v 3.80331 h 5.76535 v -34.25745 h -5.76535 v 25.57779 c -1.53344,1.20631 -3.18956,2.19832 -4.96835,2.97526 -1.75834,0.77695 -3.38379,1.16503 -4.87634,1.16503 -1.67656,0 -2.9552,-0.20407 -3.83437,-0.61299 -0.87916,-0.40892 -1.59401,-1.06357 -2.14605,-1.96319 -0.53159,-0.87917 -0.87955,-1.93252 -1.04312,-3.15927 -0.16357,-1.2472 -0.24497,-2.73937 -0.24497,-4.47726 v -19.50537 z m -145.79916,3.80332 c 3.06688,0 5.34698,0.82806 6.83953,2.48417 1.51297,1.65612 2.27969,3.99642 2.30016,7.02239 H 755.039 c 0.24534,-2.69884 1.27749,-4.95773 3.09716,-6.77742 1.84013,-1.81968 4.30425,-2.72914 7.39157,-2.72914 z m 120.71245,0.42898 c 1.43121,0 2.76058,0.14273 3.98733,0.42898 1.22675,0.28624 2.63752,0.78756 4.2323,1.50315 v 19.38231 c -1.45166,1.14497 -3.01577,2.08625 -4.69233,2.8223 -1.67656,0.71561 -3.35391,1.07302 -5.03045,1.07302 -3.00555,0 -5.21371,-1.0734 -6.62447,-3.22022 -1.39032,-2.16726 -2.08509,-5.25422 -2.08509,-9.2616 0,-3.9665 0.86933,-7.07466 2.60723,-9.3237 1.73789,-2.26949 4.2728,-3.40424 7.60548,-3.40424 z"
         style="fill:white;stroke:black;stroke-width:0"
         id="path86" /></g></g></svg>
